<svg viewBox="0 0 1920 327" xmlns="http://www.w3.org/2000/svg"><g fill="#fff"><path d="m101.47 291.73c-25.33 0-49.48-11.78-61.27-23-2.35 2.35-5.29 7.65-5.29 12.37 0 7.07-.59 10.6-7.66 10.6-7.66 0-8.25-4.12-8.25-10v-67.14c0-5.89 1.18-10.6 7.66-10.6 7.66 0 8.25 5.89 8.25 10.6 0 36.53 38.28 58.91 63.61 58.91 27.68 0 53.61-9.43 53.61-41.82 0-20.62-15.32-33-47.13-42.41l-17.67-5.89c-30.63-9.43-67.15-29.46-67.15-71.87 0-47.12 40.05-70.1 80.7-70.1 21.79 0 41.23 10.61 50.07 18.26 2.35-1.17 4.12-4.12 4.12-7.65 0-5.3 1.17-10.61 8.25-10.61 7.65 0 8.24 4.72 8.24 10v58.31c0 4.72-1.77 10-7.66 10-7.66 0-8.83-5.3-8.83-10 0-19.44-14.73-50.07-54.19-50.07-25.33 0-50.07 11.79-50.07 39.47 0 19.44 16.49 33 36.52 38.29l21.79 5.89c45.95 12.37 74.81 36.52 74.81 77.17 0 48.32-40.05 71.29-82.46 71.29z"/><path d="m425.44 125.62c-6.48 0-9.43-4.71-9.43-8.84 0-42.41-9.43-53-43.59-53h-25.33v205c28.28 0 31.81-.59 37.7-.59 4.71 0 8.84 4.12 8.84 10.6s-4.13 10-8.84 10c-5.89 0-9.42-3-57.14-3h-2.35c-48.3 0-51.84 3-57.73 3-4.12 0-8.83-3.54-8.83-10s4.71-10.6 8.83-10.6c5.89 0 9.43.59 37.7.59v-205h-25.33c-34.16 0-43 10.6-43 53 0 4.13-2.94 8.84-9.42 8.84s-8.84-4.71-8.84-8.84c0-5.89 2.36-22.38 2.36-46.53v-15.9c0-6.49 4.12-10.61 8.83-10.61 5.31 0 23.57 2.95 33 2.95h127.22c8.84 0 27.1-2.95 32.4-2.95 4.71 0 8.84 4.12 8.84 10.61v15.9c0 24.15 2.94 40.64 2.94 46.53a8.64 8.64 0 0 1 -8.83 8.84z"/><path d="m610.11 270.52c35.94 0 58.32-20.61 58.32-54.19v-152c-24.74 0-27.09.59-33 .59-4.13 0-8.84-3.54-8.84-10s4.71-10.61 8.84-10.61c5.89 0 8.83 3 43 3h.57c34.76 0 37.11-3 43-3 4.12 0 8.83 4.12 8.83 10.61s-4.67 10.08-8.83 10.08c-5.9 0-8.84-.59-33-.59v152c0 51.25-40.65 75.4-89.54 75.4-47.71 0-88.94-24.15-88.94-75.4v-152c-28.87 0-31.81.59-37.7.59-4.71 0-8.84-3.54-8.84-10s4.13-10.61 8.84-10.61c5.89 0 8.83 3 57.14 3h2.35c48.3 0 51.84-3 57.73-3 4.12 0 8.83 4.12 8.83 10.61s-4.71 10-8.83 10c-5.89 0-9.43-.59-37.7-.59v159c.05 33.59 27.15 47.11 57.77 47.11z"/><path d="m1003.78 166.85c0 69.51-50.66 121.35-106 121.35-16.49 0-63-2.95-72.45-2.36-47.71 0-51.25 3-57.14 3-4.71 0-8.83-3.54-8.83-10s4.12-10.6 8.83-10.6c5.89 0 9.43.59 37.7.59v-204.47c-28.27 0-31.81.59-37.7.59-4.71 0-8.83-3.54-8.83-10s4.12-10.61 8.83-10.61c5.89 0 9.43 3 57.14 3 17.67-.59 56-1.77 72.45-1.77 55.34-.06 106 51.18 106 121.28zm-44.18 0c0-78.34-22.38-103.08-66-103.08-24.74 0-46 .59-46 .59v204.4s18.85 1.18 46 1.18c43.62 0 66-25.34 66-103.09z"/><path d="m1159.38 268.17c4.71 0 8.83 4.12 8.83 10.6s-4.12 10-8.83 10c-5.89 0-9.43-3-57.14-3h-2.94c-47.72 0-51.25 3-57.14 3-4.71 0-8.84-3.54-8.84-10s4.13-10.6 8.84-10.6c5.89 0 9.42.59 37.7.59v-204.4c-28.28 0-31.81.59-37.7.59-4.71 0-8.84-3.54-8.84-10s4.13-10.61 8.84-10.61c5.89 0 9.42 3 57.14 3h2.94c47.71 0 51.25-3 57.14-3 4.71 0 8.83 4.12 8.83 10.61s-4.12 10-8.83 10c-5.89 0-9.43-.59-37.7-.59v204.4c28.32 0 31.81-.59 37.7-.59z"/><path d="m1311 291.73c-61.27 0-113.1-50.07-113.1-124.88s51.8-125.47 113.1-125.47c61.84 0 113.09 50.66 113.09 125.47s-51.28 124.88-113.09 124.88zm0-230.91c-43 0-66 25.92-66 106s23 106 66 106 66-25.92 66-106-23-106-66-106z"/><path d="m1702.89 268.17c4.12 0 8.84 4.12 8.84 10.6s-4.72 10-8.84 10c-5.89 0-9.43-3-57.73-3h-2.35c-47.71 0-51.25 3-57.14 3-4.71 0-8.84-3.54-8.84-10s4.13-10.6 8.84-10.6c5.89 0 9.43.59 37.7.59v-204.4c-28.27 0-39.46 1.77-45.36 1.77-4.12 0-8.83-4.13-8.83-10.61 0-5.89 4.71-10 8.83-10 5.9 0 17.09 1.18 45.36 1.18 9.43 0 27.69-2.95 33-2.95 4.13 0 8.84 4.12 8.84 10.61v214.4c28.25 0 31.79-.59 37.68-.59z"/><path d="m1755.17 84.39s-7.08 20.61-7.08 41.23c0 4.12-3.53 8.83-10 8.83s-9.42-4.71-9.42-8.83c0-7.66 8.24-33.58 8.24-61.26v-11.19c0-6.48 4.13-10 8.84-10 6.48 0 18.26 2.36 33 2.36l110.16 1.18 2.35-4.13c8.25-12.37 23-1.18 15.91 9.43l-74.81 109.56c-33 48.3-44.77 63.61-44.77 82.46 0 15.91 8.84 24.75 18.85 27.69-5.89-17.67 9.42-30.63 22.38-30.63a24.26 24.26 0 0 1 24.18 24.13c0 17.08-17.09 27.68-33 27.68-21.21 0-50.66-12.36-50.66-48.89 0-25.91 14.14-43.58 46-90.12l47.66-69.5z"/></g></svg>