<svg viewBox="0 0 1059 1080" xmlns="http://www.w3.org/2000/svg"><g fill="#fff"><path d="m76.91 1037.39c-13.08 0-25.56-6.08-31.65-11.87a10.34 10.34 0 0 0 -2.74 6.4c0 3.65-.3 5.47-4 5.47-4 0-4.26-2.13-4.26-5.17v-34.7c0-3 .61-5.47 3.95-5.47 4 0 4.26 3 4.26 5.47 0 18.87 19.78 30.44 32.87 30.44 14.3 0 27.7-4.87 27.7-21.61 0-10.65-7.92-17-24.35-21.91l-9.13-3c-15.83-4.88-34.69-15.22-34.69-37.13 0-24.35 20.69-36.22 41.69-36.22a42.51 42.51 0 0 1 25.87 9.43 4.37 4.37 0 0 0 2.13-4c0-2.74.61-5.48 4.26-5.48 4 0 4.26 2.43 4.26 5.17v30.13c0 2.44-.91 5.17-4 5.17-4 0-4.56-2.73-4.56-5.17 0-10-7.61-25.87-28-25.87-13.09 0-25.87 6.09-25.87 20.39 0 10 8.52 17 18.87 19.79l11.26 3c23.74 6.39 38.65 18.87 38.65 39.87.09 25-20.6 36.87-42.52 36.87z"/><path d="m244.3 951.57a4.55 4.55 0 0 1 -4.87-4.57c0-21.91-4.87-27.39-22.52-27.39h-13.09v105.91c14.61 0 16.44-.3 19.48-.3 2.43 0 4.56 2.13 4.56 5.48s-2.13 5.17-4.56 5.17c-3 0-4.87-1.52-29.52-1.52h-1.22c-25 0-26.78 1.52-29.83 1.52a4.83 4.83 0 0 1 -4.56-5.17c0-3.35 2.43-5.48 4.56-5.48 3.05 0 4.87.3 19.48.3v-105.91h-13.08c-17.66 0-22.22 5.48-22.22 27.39a4.55 4.55 0 0 1 -4.87 4.57 4.3 4.3 0 0 1 -4.57-4.57c0-3 1.22-11.56 1.22-24v-8.22c0-3.34 2.13-5.47 4.57-5.47 2.74 0 12.17 1.52 17 1.52h65.74c4.56 0 14-1.52 16.74-1.52 2.43 0 4.56 2.13 4.56 5.47v8.22c0 12.48 1.52 21 1.52 24a4.47 4.47 0 0 1 -4.52 4.57z"/><path d="m339.71 1026.44c18.57 0 30.14-10.66 30.14-28v-78.52c-12.79 0-14 .3-17.05.3a4.83 4.83 0 0 1 -4.56-5.17c0-3.35 2.43-5.48 4.56-5.48 3.05 0 4.57 1.52 22.22 1.52h.3c18 0 19.18-1.52 22.22-1.52 2.13 0 4.56 2.13 4.56 5.48a4.83 4.83 0 0 1 -4.56 5.17c-3 0-4.57-.3-17-.3v78.52c0 26.47-21 39-46.26 39-24.65 0-46-12.48-46-39v-78.52c-14.91 0-16.43.3-19.47.3-2.44 0-4.57-1.82-4.57-5.17s2.13-5.48 4.57-5.48c3 0 4.56 1.52 29.52 1.52h1.21c25 0 26.78-1.52 29.83-1.52 2.13 0 4.56 2.13 4.56 5.48a4.83 4.83 0 0 1 -4.56 5.17c-3.05 0-4.87-.3-19.48-.3v82.17c0 17.35 14 24.35 29.82 24.35z"/><path d="m543.11 972.87c0 35.91-26.18 62.7-54.78 62.7-8.53 0-32.57-1.53-37.44-1.22-24.65 0-26.47 1.52-29.52 1.52-2.43 0-4.56-1.83-4.56-5.17s2.13-5.48 4.56-5.48c3.05 0 4.87.3 19.48.3v-105.6c-14.61 0-16.43.3-19.48.3-2.43 0-4.56-1.82-4.56-5.17s2.13-5.48 4.56-5.48c3.05 0 4.87 1.52 29.52 1.52 9.13-.3 28.91-.91 37.44-.91 28.6 0 54.78 26.48 54.78 62.69zm-22.83 0c0-40.47-11.56-53.26-34.08-53.26-12.78 0-23.74.31-23.74.31v105.6s9.74.61 23.74.61c22.52 0 34.08-13.13 34.08-53.26z"/><path d="m623.5 1025.22c2.44 0 4.57 2.13 4.57 5.48s-2.13 5.17-4.57 5.17c-3 0-4.87-1.52-29.52-1.52h-1.52c-24.65 0-26.48 1.52-29.52 1.52-2.44 0-4.57-1.83-4.57-5.17s2.13-5.48 4.57-5.48c3 0 4.87.3 19.47.3v-105.6c-14.6 0-16.43.3-19.47.3-2.44 0-4.57-1.82-4.57-5.17s2.13-5.48 4.57-5.48c3 0 4.87 1.52 29.52 1.52h1.54c24.65 0 26.48-1.52 29.52-1.52 2.44 0 4.57 2.13 4.57 5.48s-2.13 5.17-4.57 5.17c-3 0-4.87-.3-19.48-.3v105.6c14.59 0 16.42-.3 19.46-.3z"/><path d="m701.82 1037.39c-31.65 0-58.43-25.87-58.43-64.52s26.78-64.82 58.43-64.82c31.95 0 58.43 26.17 58.43 64.82s-26.48 64.52-58.43 64.52zm0-119.3c-22.22 0-34.09 13.39-34.09 54.78s11.87 54.78 34.09 54.78 34.09-13.39 34.09-54.78-11.91-54.78-34.09-54.78z"/><path d="m904.31 1025.22c2.14 0 4.57 2.13 4.57 5.48a4.83 4.83 0 0 1 -4.57 5.17c-3 0-4.87-1.52-29.82-1.52h-1.22c-24.65 0-26.47 1.52-29.52 1.52-2.43 0-4.56-1.83-4.56-5.17s2.13-5.48 4.56-5.48c3 0 4.87.3 19.48.3v-105.6c-14.61 0-20.39.91-23.44.91-2.13 0-4.56-2.13-4.56-5.48a5 5 0 0 1 4.56-5.17c3.05 0 8.83.61 23.44.61 4.87 0 14.3-1.52 17-1.52 2.13 0 4.57 2.13 4.57 5.47v110.78c14.64 0 16.47-.3 19.51-.3z"/><path d="m931.32 930.27a75.5 75.5 0 0 0 -3.65 21.3 4.83 4.83 0 0 1 -5.17 4.56 4.55 4.55 0 0 1 -4.87-4.56c0-4 4.26-17.35 4.26-31.65v-5.78c0-3.35 2.13-5.18 4.56-5.18 3.35 0 9.44 1.22 17 1.22l56.91.61 1.21-2.13c4.26-6.39 11.87-.61 8.22 4.87l-38.65 56.6c-17 25-23.13 32.87-23.13 42.61 0 8.22 4.57 12.78 9.74 14.3-3-9.12 4.87-15.82 11.56-15.82a12.53 12.53 0 0 1 12.48 12.48c0 8.82-8.82 14.3-17 14.3-11 0-26.17-6.39-26.17-25.26 0-13.39 7.3-22.52 23.74-46.56l24.64-35.91z"/><path d="m776.9 181.7c-4.71-8.18-11.14-12.25-18.52-11.66-11.81.87-17.88 5.39-24.3 10.17-7.85 5.85-16 11.9-36.79 13.12-27.06 1.6-42.49-6.16-56.1-13l-2.32-1.15c5.64-6.13 9.16-12.9 9.66-19.81 1.09-15-3-26.79-11.54-33.09-7.4-5.47-17.49-6.13-28.4-1.87-10.05 3.93-28.55 2.88-35.31-3.45a14.43 14.43 0 0 0 -11.1-11.57c-8-1.89-16.49 3.28-16.85 3.5l-2.33 1.44 1.53 2.27c.22.33 5.52 8.11 12.48 10.19a13.27 13.27 0 0 0 3.83.52 27.73 27.73 0 0 0 9.42-2c8.78 7.35 28.74 8.47 40.24 4 9.16-3.57 17.45-3.15 23.35 1.2 7 5.19 10.37 15.3 9.41 28.47-1.51 20.92-37.11 41.06-71.73 40.83-10.51-.09-17.88-4.64-25.68-9.46-11.56-7.14-23.52-14.53-45-4.86-14.34 7.95-13.66 23.6-13.06 37.42.54 12.37 1 23.05-7.65 28-79.37 45.4-202.51 22.76-221.39 3.36-8.6-8.83-5-22.24 1.58-46.6l.18-.64c10.73-39.84 0-92.5-.49-94.7-.57-2.8-1.36-10.77 1.7-14.08 1.17-1.26 2.9-1.74 5.31-1.44 1.76.22 4.39 1.9 7.73 4 18.66 11.88 62.38 39.71 214.07-.34 11.49-3 15.21 3.22 19.14 9.84 2.72 4.56 5.52 9.28 11 9.63 11.43.83 14.63-12.56 18-26.63 4.42-18.27 9.44-39 31.07-39.89 25.4-1.07 56.22 6.73 59.34 32.23 1.28 10.45-.43 17.83-5.06 21.93s-11.75 4.13-15.48 3.7c-1-4.41-4-14.82-10.4-20-9.2-7.41-24.75-7.37-25.39-7.33h-2.74l.13 2.73c0 .69.92 16.94 10.83 26a22.72 22.72 0 0 0 15.57 6.17 23.28 23.28 0 0 0 10.49-2.46c4.33.63 13.7 1.11 20.45-4.85 6-5.32 8.33-14.26 6.83-26.55-3.56-29.07-37.12-38-64.8-36.85-25.59 1.08-31.34 24.82-36 43.91-3.46 14.29-6 23.07-12.57 22.61-2.55-.17-4.23-2.8-6.78-7.07-4.08-6.87-9.69-16.29-25-12.24-149.46 39.47-191.81 12.5-209.89 1-4.05-2.57-7-4.44-9.92-4.8-5.18-.65-8.2 1.33-9.83 3.1-5.42 5.87-3.25 17.4-3 18.71.11.53 11 53.63.55 92.26l-.17.65c-7.07 26.22-11 40.67-.27 51.65 12.5 12.83 57.83 24.39 108.93 24.39 40.48 0 84.58-7.25 118.85-26.86 11.44-6.54 10.86-19.89 10.3-32.8-.58-13.48-1.13-26.21 10.16-32.48 10.94-4.92 18.82-4.89 25.74-2.63.6 8.09 3.62 29.52 18.91 46.33l3.9-3.55c-12.61-13.86-16.23-31.61-17.26-40.48 2.87 1.44 5.67 3.17 8.58 5 8.06 5 16.41 10.15 28.39 10.25h.87c24.2 0 48.11-9.17 62.52-22 1.3.64 2.6 1.27 3.94 1.95 13.5 6.78 30.28 15.25 58.78 13.55 22.39-1.31 31.55-8.13 39.63-14.15 6-4.5 11.26-8.39 21.53-9.15 5.35-.38 9.88 2.65 13.57 9 10.9 18.94 9.53 57.85 2.58 68-14.74 21.56-89.39 35-153.57 10.89l-1.85 4.93c24.43 9.19 51.09 13.19 75.65 13.19 39.37 0 73.36-10.29 84.12-26 8.8-12.82 9.1-53.8-2.3-73.6zm-218.37-60c-3.11-.93-6-3.67-7.74-5.71 2.56-1.1 6.57-2.37 10.18-1.51a9 9 0 0 1 6.8 6.13c-2.58.95-6.52 1.93-9.24 1.13zm24.32-12.92c-6-5.49-8.11-14.75-8.8-19.43 4.59.33 13.52 1.54 19.12 6 5 4 7.59 12.94 8.52 16.87a17.48 17.48 0 0 1 -18.84-3.4z"/><path d="m623.91 158.3c7.79-5.54 11-19.05 11.16-19.62l.41-1.78-1.51-1a21.23 21.23 0 0 0 -24.82 1.61c-9.6 7.74-11.3 22.6-11.37 23.23l-.3 2.72 2.74.19c.14 0 1 .07 2.49.07 4.58-.01 14.45-.62 21.2-5.42zm-11.45-16.69a15.69 15.69 0 0 1 10-3.73 17 17 0 0 1 6.9 1.52c-1.27 4.21-4.21 11.51-8.56 14.6-5.16 3.68-13.08 4.35-17.33 4.42.95-4.26 3.34-12.26 8.99-16.81z"/><path d="m565.7 511.93c7.79-5.54 11-19.05 11.15-19.62l.42-1.77-1.52-1a21.23 21.23 0 0 0 -24.81 1.61c-9.61 7.75-11.31 22.6-11.38 23.23l-.29 2.72 2.73.19c.14 0 1.06.07 2.5.07 4.58-.02 14.5-.63 21.2-5.43zm-11.45-16.69a15.67 15.67 0 0 1 10-3.73 17 17 0 0 1 6.88 1.52c-1.09 3.6-3.88 11.29-8.54 14.61-5.16 3.67-13.09 4.34-17.34 4.41.96-4.26 3.34-12.26 9-16.81z"/><path d="m814.09 541.89c-1.09-7.4-5.65-31.89-18.09-36.89-18-7.13-42.16-1.84-61.62 2.41-5.73 1.26-11.15 2.44-15.87 3.2-34.5 5.51-65.57-2.45-92.35-23.65a25.51 25.51 0 0 0 -1.72-6.66c-1.68-3.73-3.49-7.2-7.18-8.54-4.59-1.68-10.68.06-26 7.42-10.71 5.14-21.38-.56-30.58-6.47a14.76 14.76 0 0 0 -11.92-7.29c-8.52-.67-16.37 6.07-16.7 6.35l-2.07 1.79 1.87 2c.28.31 7 7.43 14.46 8.42a12.12 12.12 0 0 0 1.59.1c6.11 0 12.57-4.21 13.34-4.73 8 4.84 20 10.49 32.24 4.61 11.15-5.34 18.7-8.4 21.95-7.22 1.41.51 2.5 2 4.18 5.76 2 4.49 3.44 19.34-2.45 33.32-4.17 9.9-10.9 16.61-20 19.93-14.59 5.34-25.29 3.49-37.69 1.36a158.93 158.93 0 0 0 -16.16-2.2 84.58 84.58 0 0 0 -9.37-.19 37.6 37.6 0 0 0 -20.1 6.44c-19.48 13.43-10.54 31-3.36 45.18 7.35 14.48 11.28 23.7 0 30.48-78.77 47.19-190 64.9-207 52.88-10.94-7.7-16.79-45.85-18.49-76.21-1-17.4-8.37-36.23-14.9-52.86-10.1-25.71-15.7-41.73-4.2-46.76 5.44-2.39 15-.19 28.18 2.85 37.68 8.68 100.73 23.21 195.82-33.49a6 6 0 0 1 5.31-.4 5.35 5.35 0 0 1 3.15 3.8c.9 3.64 3.22 5.83 6.37 6 6 .34 13.23-6.83 16.87-16.69s4.57-18.29 5.32-25.07c1.74-15.65 2.54-22.8 32.56-26.64 31.09-4 60.83 4.83 64.71 14.78 4 10.31 4.25 19.16.68 26.3-5.33 10.69-17.52 14.15-17.87 14.25-.09 0-7.76 2.76-15.41.89a22 22 0 0 0 -13-19.59c-11.62-5.44-26.28-.24-26.9 0l-2.57.93 1 2.53c.23.59 5.88 14.32 15.81 19.72 3.72 2 8.41 2.61 12.62 2.61a53.22 53.22 0 0 0 10.81-1.15l.29-.07a29.33 29.33 0 0 0 7.59 1 36.3 36.3 0 0 0 11.28-1.81c.59-.17 14.52-4.1 20.93-16.86 4.3-8.54 4.15-18.85-.45-30.62-5.76-14.78-41.87-21.74-70.29-18.11-32.62 4.19-35.16 13.61-37.13 31.3-.76 6.83-1.62 14.58-5 23.83-3.11 8.43-8.78 13.34-11.63 13.25-.29 0-1.06-.06-1.54-2a10.65 10.65 0 0 0 -6.23-7.4 11.25 11.25 0 0 0 -10.05.73c-93.27 55.61-155 41.38-191.93 32.88-14.19-3.27-24.45-5.63-31.49-2.54-16.73 7.32-8.32 28.73 1.41 53.52 6.38 16.25 13.61 34.67 14.54 51.23.9 16 5.06 69.19 20.65 80.21 4 2.81 12.43 4.24 24 4.24 41.79 0 124.63-18.5 188.73-56.91 16.11-9.65 8.63-24.38 2-37.38-7.22-14.22-14-27.65 1.65-38.46a32.46 32.46 0 0 1 17.3-5.52 79.91 79.91 0 0 1 8.55.17c11.44 1.79 17.35 8.49 17.53 20v8.4c-.28 21.82-.74 58.33 19.37 76.34 7.69 6.89 17.69 10.36 29.83 10.36a71.18 71.18 0 0 0 8.8-.57c36.54-4.5 44.37-24.07 50.66-39.8 5.3-13.24 9.16-22.79 28.07-21 63.39 6.23 98.35 4.8 110-4.52 8.91-7.01 10.05-28.91 7.29-47.5zm-267.09-63.12c-3.45-.46-6.93-2.91-9.1-4.74 2.65-1.68 6.74-3.58 10.46-3.33a9.56 9.56 0 0 1 8.15 5.36c-2.51 1.37-6.6 3.1-9.51 2.71zm21.59-19.38c-5.9-3.2-10.2-10.46-12.2-14.4 4.4-1.11 13.14-2.6 20.08.65a16.54 16.54 0 0 1 9.9 15.08c-4.56.75-12.87 1.37-17.82-1.33zm235.07 125.85c-10.26 8.18-46 9.31-106.25 3.39-22.87-2.27-28 10.62-33.47 24.24-6.08 15.19-13 32.41-46.41 36.53-14.59 1.81-26.18-1.06-34.48-8.49-18.32-16.41-17.87-51.42-17.61-72.34 0-3.25.08-6.14 0-8.56-.13-7.44-2.29-13.35-6.34-17.62 12.38 2.13 24.16 4 39.83-1.69 10.38-3.8 18.35-11.7 23-22.85a62.08 62.08 0 0 0 4.59-23.9c27.13 20 58.29 27.39 92.71 21.88 4.87-.78 10.36-2 16.17-3.25 18.75-4.1 42.09-9.2 58.55-2.66 6.44 2.56 12.26 15.41 14.83 32.74 3 19.59.76 37.89-5.12 42.58z"/><path d="m602.93 374.85-1.52-.83c-.95-.52-9.5-5-16.14-3.31-7.63 1.93-13.6 10.46-13.85 10.82l-1.48 2.14 2.12 1.51c.33.24 7.46 5.25 15.18 5.25a16.14 16.14 0 0 0 3-.28 15.11 15.11 0 0 0 11.61-9.84 10.73 10.73 0 0 1 4.56 5.6c2.68 7.52-2.59 17.42-2.64 17.52l4.63 2.51c.27-.48 6.44-12 3-21.77a16.41 16.41 0 0 0 -8.47-9.32zm-13.65 10.15c-4.28.8-9-1.17-11.76-2.65 2-2.26 5.38-5.57 9.05-6.5 3.13-.81 7.76.75 10.58 2a9.94 9.94 0 0 1 -7.87 7.15z"/><path d="m775 351a12.83 12.83 0 0 0 -13-4.45c-28.59 6.35-45.73 6.94-57.32 2-2.18-.94-5.14-2.4-8.56-4.08-19.09-9.4-54.13-26.65-86.22-20.59a41.18 41.18 0 0 0 -1-5.22l-.34-1.34c-1.51-6.07-3.38-13.62-20.27-15.9-8.34-1.12-14.94.73-20.23 2.22-5.73 1.61-9 2.35-12.06.26a15 15 0 0 0 -7.37-13.64c-7.32-4.42-17.33-2-17.76-1.92l-2.65.65.75 2.63c.11.4 2.86 9.8 9.07 14.07 3.45 2.38 8.36 2.86 11.72 2.86a31.3 31.3 0 0 0 3.47-.18c5.12 3.41 10.54 1.95 16.25.34 5.09-1.43 10.85-3 18.11-2.06 13.34 1.8 14.5 6.5 15.86 11.94l.36 1.42c.62 2.36 3.43 14.69-3 25.32-4 6.63-10.83 11.08-20.29 13.22-12.37 2.82-19.17 2.07-26.37 1.28-9.22-1-19.66-2.15-42.81 3.82a66.51 66.51 0 0 0 -10.16 3.79l-.33.12c-12.51 6.06-16.6 14.35-17.23 23a83.48 83.48 0 0 0 -11.8-15.62 99.36 99.36 0 0 0 -8.46-7.91l.09-.1c-.78-.69-18.89-17.13-8.31-37.72 8-15.65 21.56-16.24 27.41-15.68.22 3.53 1.25 12.92 6.08 18 6.69 7 19.53 8.3 20.07 8.35l2.59.25.28-2.59c.06-.57 1.44-14.19-5.62-22.62a18.67 18.67 0 0 0 -19.33-6.08c-1.13-.25-24.21-5.3-36.17 18-6.39 12.44-3.79 23.65.3 31.66-16.33-8.79-29-7.07-32.26-6.41-5.3-1.69-15.79-2.09-22.81 7.23-7.28 9.66-5 24.56-4.89 25.19l.41 2.57 2.58-.38c.59-.09 14.66-2.23 21.6-10.32 4.71-5.49 5.52-15 5.64-19.35 6-.74 25.48-1 47 21.59a72.69 72.69 0 0 1 17.65 30c.06.3.13.61.2.91 3.11 14.56 4.42 23.8-7.53 30-6.53 3.4-13.06 6.47-19.56 9.29-24.34 9.27-55.46 12.79-74.18 8.36-11.7-2.77-16.19-12.58-17.6-16.75l1-.35c1-.36 9.79-3.64 12.88-9.57 3.54-6.8 1.24-16.66 1.14-17.08l-.61-2.52-2.54.57c-.44.1-10.92 2.53-15.41 10a3.3 3.3 0 0 0 -.18.32 18 18 0 0 0 -2.88-4.54c-7.2-8.11-21.55-10-22.15-10.11l-2.58-.33-.37 2.57c-.09.64-2.16 15.84 5.41 25.53a20.31 20.31 0 0 0 16.44 8 22.54 22.54 0 0 0 5-.57c1.84 5.27 7.33 16.65 21.3 20a89.12 89.12 0 0 0 20.07 2c4.13 0 8.45-.23 12.86-.62-60.79 16.48-113.4 11.18-132.68 4-11.75-4.39-21.57-15.87-25-29.26-4.64-18-2.11-32.72 7.52-43.64l.08-.08a22.25 22.25 0 0 0 18.31 14.39 23 23 0 0 0 2.87.17c12.13 0 23.31-8.95 23.81-9.36l2-1.64-1.61-2c-.41-.52-10.19-12.77-21.7-14.93a17.24 17.24 0 0 0 -3.06-.27l.86-.35c16-6 35.27-6.93 51.78-5.11.5 4.41 2.11 13.62 7.18 18.63 7.57 7.5 21.77 8.49 22.37 8.53l2.59.17.21-2.59c.05-.64 1.12-15.68-6.92-24.72s-18.83-7.37-23.78-5.14a136.23 136.23 0 0 0 -37.27.62c7.65-6.23 14.43-15.27 12.16-27.05-2.52-13.11-10.32-18.56-23.89-16.64-12.39 1.74-17.24-.59-23-5.58-1.87-1.87-5.87-5.45-10.19-6.59-1.38-11.71 5.35-16 5.63-16.22l.31-.22c2.06-1.65 9.26.81 17.6 3.66 29.65 10.13 91.35 31.21 196.46-17.73 7.4-3.45 10.93-.22 15.83 4.24 4.13 3.75 8.76 8.1 16.29 7.74 11.61-.42 12.92-12.61 14.31-25.51 1.92-17.88 3.9-36.36 28.69-36.37 33.79 0 56.52 8.46 62.37 23.21 3.5 8.85 3.58 15.52.22 19.84-5.07 6.53-16.78 6.72-22 6.45l-.08-.13c-.33-.58-8.1-14.26-18.3-17.82-11.59-4.05-26.81 1.45-27.45 1.69l-2.57.94 1 2.53c.27.67 6.81 16.29 19.68 21.68a24.66 24.66 0 0 0 9.56 2 24.26 24.26 0 0 0 15.47-5.77c3.45.36 21 1.66 28.76-8.3 4.6-5.9 4.77-14.32.53-25-9.15-23.09-46-26.54-67.27-26.54-29.53 0-32.07 23.74-33.94 41.07-1.36 12.74-2.54 20.57-9.25 20.81-5.34.16-8.84-3-12.55-6.37-5.18-4.71-11.05-10-21.61-5.12-103.16 47.89-163.51 27.27-192.51 17.36-11.3-3.86-18.16-6.21-22.48-2.87-1.38.89-9.46 6.76-8.1 20.56-6.16 1.23-11.68 6.33-12 6.58l-1.62 1.56 1.3 1.87c.26.39 6.59 9.36 14.8 10.28a13.69 13.69 0 0 0 1.55.09c5.69 0 9.5-3.62 11.56-7 5.9 4.15 12 5.67 23.63 4 10.79-1.52 16 2.07 18 12.42 3.78 19.64-26.1 31.18-26.4 31.29-8.65 3.44-16.39 8.3-22.27 15-10.85 12.3-13.77 28.6-8.68 48.43 3.86 15 15 27.91 28.28 32.89 10.24 3.83 29.6 7.15 54.51 7.15a317.7 317.7 0 0 0 124.79-26.19q9.81-4.26 19.64-9.36c9.22-4.81 12.14-11.62 12.44-19 .05-.57.56-8.18-2.68-18.9-2.89-13.72-4.57-25.76 12.21-33.91.1 0 10.2-3.92 19.44.54 6 2.92 10.42 8.81 13.06 17.5 0 .13 3.92 12.66 5.91 15.68l4.4-2.9c-1.07-1.63-4-10.19-5.27-14.31-3.08-10.16-8.4-17.13-15.81-20.71a24.19 24.19 0 0 0 -3.71-1.43c16.56-3.53 24.79-2.63 32.78-1.76 7.65.85 14.87 1.63 28.11-1.38 10.9-2.47 18.85-7.73 23.63-15.63a36.41 36.41 0 0 0 4.89-18.82c10.89-2.08 22.19-1.38 33.11.92 1.44.69 9.17 4.65 11 11.53 1 3.72.15 7.81-2.57 12.19a15.07 15.07 0 0 0 -14.81 5.9c-5.18 6.8-4 16.86-3.94 17.29l.35 2.78 2.75-.52c.41-.08 9.92-1.93 14.81-7.63 3.48-4.05 4.2-10.71 4.34-13.58 4.29-6.2 5.71-12.2 4.15-17.85a19.19 19.19 0 0 0 -3.59-6.86c15 4.62 28.5 11.26 38 15.92 3.49 1.71 6.5 3.2 8.81 4.19 12.85 5.52 30.39 5 60.54-1.66 3.13-.69 5.66.19 7.93 2.79 12.4 14.14 9.71 69.07 4.32 83.81-1.67 4.58-8.91 16.17-38.92 17.67 5.44-6.37 14-18.62 14.09-32.78a34.45 34.45 0 0 0 -6.2-19.84c3.57-1.89 10.29-6 13-11.66 4.2-8.7 1.46-20.94 1.34-21.46l-.62-2.73-2.69.79c-.53.16-13.06 4-18.4 13.55a19.35 19.35 0 0 0 -2.53 10.77c-12.33-10.61-25.48-15.81-39.3-15.38-18 .54-32.06 10.46-38.54 16l-.28-.12c-1-.43-9.88-4.18-16.36-1.93-7.44 2.59-12.66 11.59-12.88 12l-1.29 2.26 2.24 1.32c.33.2 6.86 4 14 4a17.14 17.14 0 0 0 4.58-.59 14.83 14.83 0 0 0 8.74-6.37 21.72 21.72 0 0 0 7.2 16.52c8.35 7.76 21.57 8.27 24.86 8.27h.74l2.74-.1-.2-2.73c-.05-.62-1.22-15.43-9-23.61-4.63-4.87-12.71-7-17.65-8 6.88-5 18-11.24 31.31-11.64 13.53-.42 26.57 5.28 38.79 16.88 7.47 7.09 11.23 15.08 11.18 23.75-.11 16-13.15 30-16.14 33a228.52 228.52 0 0 1 -38-3.79c-22.23-3.87-33.07-8.14-41.78-11.57-6.14-2.42-11.45-4.51-18.89-5.75l-.87 5.2c6.89 1.15 11.72 3 17.83 5.45 8.93 3.52 20.05 7.9 42.81 11.86a232.7 232.7 0 0 0 39.46 3.86c37.86 0 47.92-14 50.58-21.28 5.26-14.41 9.4-72.38-5.26-89.12zm-234-49.72c-2.86-2-4.85-5.74-6-8.35 2.92-.28 7.42-.28 10.83 1.77a9.58 9.58 0 0 1 4.83 8.48c-2.84.09-7.2-.18-9.66-1.9zm-39.11 17c3.94 4.72 4.53 12 4.53 15.91-3.72-.71-10.3-2.44-14-6.32-3.11-3.27-4.27-10-4.59-13.91a13.32 13.32 0 0 1 14.05 4.3zm-90.53 54.61c-4 4.7-11.6 7-15.65 8-.27-4.31-.13-12.76 4.16-18.45a14.55 14.55 0 0 1 12.05-6.08 18.25 18.25 0 0 1 3.82.41c-.12 4.32-1.01 12.16-4.39 16.1zm-66.54 58.75c-4.48-5.73-4.76-14.41-4.57-18.79 4.13.89 11.95 3.13 16.16 7.88 3.53 4 4.58 12 4.76 16.41a15.41 15.41 0 0 1 -16.36-5.52zm23.1-7.46c2.15-3.57 6.54-5.68 9.39-6.73.35 2.89.52 7.41-1.16 10.61-1.43 2.75-5.47 5.07-8.18 6.3a9.54 9.54 0 0 1 -.06-10.2zm-7-45.09c4.72 5.3 5.55 13.72 5.64 18-4.11-.62-11.85-2.33-16.25-6.68-3.68-3.65-5.2-11.38-5.67-15.71a15.18 15.18 0 0 1 16.36 4.37zm208.18-90.8c-8-3.33-13.29-11.87-15.57-16.2 4.59-1.29 14-3.29 21.11-.79 6.44 2.25 12.14 10.23 14.4 13.74a18.38 18.38 0 0 1 -19.94 3.25zm-312.41 41.86c-3.7-.41-7.38-3.71-9.54-6.16 2.4-1.78 6.14-4.07 9.36-3.89 1.95.07 4.43 1.58 6.54 3.28.69.64 1.35 1.23 2 1.81-1.05 2.05-3.63 5.49-8.36 4.96zm32.22 56.3c7 1.31 13.63 7.61 16.72 10.94-3.91 2.63-12.37 7.46-20.49 6.45-10-1.24-13.46-9-14.52-12.52 3.51-1.92 12.02-6.05 18.29-4.87zm358-18.38c-2.24 2.61-6.09 4.21-8.78 5.08.07-2.9.62-7.25 3-10.38a9.63 9.63 0 0 1 7.9-4q.46 0 .87 0c-.31 2.83-1.1 7.04-3.04 9.3zm-1.79 36.93c-4.21 1.17-9.07-.41-12-1.64 1.92-2.61 5.07-6.07 8.47-7.26 3.06-1.06 7.8.09 10.71 1.09a9.94 9.94 0 0 1 -7.18 7.81zm32.66.69c4.63 4.86 6.5 13.09 7.2 17.45-4.52-.29-13.29-1.54-18.92-6.77a16.55 16.55 0 0 1 -4.8-17.39c4.52.68 12.63 2.63 16.52 6.72zm63.75-21.34c2.92-5.24 8.91-8.46 12.46-10 .48 3.75.84 10.25-1.44 15-1.95 4-7.41 7.56-10.81 9.35a13.73 13.73 0 0 1 -.21-14.34z"/><path d="m580 341.92c9.83 0 20.67-9 21.13-9.41l1.4-1.17-.61-1.72a22 22 0 0 0 -21.63-14.08c-12.82.46-23.5 11.78-24 12.26l-1.86 2 2.07 1.79c.48.41 11.77 10.05 23.07 10.32zm.48-21.12a16.53 16.53 0 0 1 15.69 8.9c-3.13 2.31-10.39 7.11-16.42 6.94-6.71-.16-13.86-4.66-17.43-7.25 3.37-2.99 10.47-8.31 18.12-8.59z"/><path d="m723.73 426.09a18.58 18.58 0 0 0 8.69 1.82 34 34 0 0 0 6.79-.7l1.82-.4.23-1.85a15.06 15.06 0 0 0 -8.85-15.06c-7.74-3.62-17.32-.32-17.72-.17l-2.65.93 1.09 2.58c.16.38 3.99 9.28 10.6 12.85zm6.45-11.41a9.68 9.68 0 0 1 5.79 7.73c-2.82.34-7.1.47-9.73-1-3-1.63-5.42-5.06-6.84-7.51 3.04-.53 7.38-.81 10.78.78z"/><path d="m256.1 387.4 1.62-.62c.65-.25 16-6.22 20.91-16.13 5.57-11.27 1.37-27.6 1.19-28.29l-.67-2.51-2.52.62c-.73.19-18 4.61-25.14 17-7.2 12.53-.93 24.26 3.4 28.71zm0-27.32c4.5-7.82 14.48-12.05 19.23-13.68.88 4.76 2.11 14.84-1.38 21.92-3.14 6.35-12.48 11.07-16.36 12.81-2.39-3.13-7.1-11.36-1.53-21.05z"/><path d="m451.9 427.71c6.34 4.59 16 5.49 22.56 5.49a65.78 65.78 0 0 0 7.07-.36l1.73-.21.49-1.66c.06-.2 5.55-19.63-11.75-30.59-13.72-8.68-33.53-3.95-34.37-3.75l-2.52.62.58 2.53c.19.79 4.62 19.52 16.21 27.93zm17.28-22.87c11.32 7.17 10.63 18.59 9.89 22.92-4.7.32-17.25.63-24.08-4.32-7.62-5.54-11.84-17-13.43-22.21 5.53-.9 18.44-2.17 27.62 3.61z"/><path d="m266.51 404.15-1.62-.62-1.21 1.24a15.1 15.1 0 0 0 -2.18 17.88c4.32 7.55 14.73 10.25 15.17 10.36l2.52.63.67-2.51c.11-.41 2.66-10.21-.72-17.1-2.94-6.03-11.65-9.5-12.63-9.88zm8.79 22.85c-2.82-1.12-7.15-3.34-9.22-6.95a9.54 9.54 0 0 1 .31-10.18c2.67 1.3 6.66 3.71 8 6.49 1.61 3.24 1.33 7.76.91 10.64z"/><path d="m355 341.21c-.44 0-10.82.75-16.41 6.29-4.88 4.83-5.44 14.46-5.48 15.54l-.08 1.73 1.56.76a16 16 0 0 0 6.7 1.42 14.86 14.86 0 0 0 11.39-5.15c5.94-6.67 5.15-17.7 5.12-18.16l-.21-2.59zm-6.26 17.08a9.93 9.93 0 0 1 -10.19 3c.38-3 1.43-7.8 3.74-10.09 2.7-2.67 7.3-3.88 10.26-4.4-.23 3.43-1.1 8.4-3.86 11.49z"/><path d="m409.34 318.55-2.28-1.24-1.27 2.26c-.23.41-5.6 10.07-3 18.62a15.48 15.48 0 0 0 14.68 11h.14 1.74l.66-1.6c.42-1 4-10 1.59-16.4-2.76-7.39-11.87-12.43-12.26-12.64zm6.42 25.19a9.91 9.91 0 0 1 -7.95-7.07c-1.26-4.18.21-9.07 1.39-12 2.65 1.87 6.18 4.95 7.43 8.32 1.12 3.06.07 7.83-.87 10.75z"/><circle cx="522.56" cy="781.49" r="10.81"/></g></svg>