<svg width="1920" height="709" xmlns="http://www.w3.org/2000/svg">

 <g>
  <title>background</title>
  <rect fill="#ffffff" id="canvas_background" height="711" width="1922" y="-1" x="-1"/>
 </g>
 <g>
  <title>Layer 1</title>
  <g id="svg_1" fill="#fff">
   <path fill="#000000" stroke="#5b5555" id="svg_2" d="m557.57,178.86c-4.76,-8.25 -11.25,-12.37 -18.7,-11.77c-11.92,0.88 -18,5.44 -24.53,10.27c-7.92,5.9 -16.12,12 -37.13,13.24c-27.32,1.62 -42.89,-6.22 -56.63,-13.13l-2.34,-1.15c5.69,-6.19 9.24,-13 9.75,-20c1.1,-15.18 -3,-27 -11.65,-33.4c-7.47,-5.52 -17.65,-6.19 -28.66,-1.89c-10.16,4 -28.83,2.91 -35.66,-3.48a14.57,14.57 0 0 0 -11.2,-11.69c-8.12,-1.9 -16.64,3.31 -17,3.54l-2.35,1.45l1.54,2.3c0.23,0.33 5.58,8.18 12.6,10.28a13.54,13.54 0 0 0 3.87,0.52a28.18,28.18 0 0 0 9.51,-2c8.86,7.42 29,8.55 40.62,4c9.25,-3.61 17.62,-3.19 23.57,1.21c7.09,5.23 10.47,15.44 9.5,28.74c-1.53,21.12 -37.47,41.44 -72.41,41.21c-10.61,-0.09 -18,-4.69 -25.92,-9.55c-11.67,-7.21 -23.74,-14.67 -45.41,-4.9c-14.48,8 -13.8,23.82 -13.19,37.77c0.54,12.48 1,23.27 -7.72,28.26c-80.12,45.83 -204.42,23 -223.48,3.4c-8.69,-8.92 -5,-22.46 1.59,-47l0.18,-0.65c10.84,-40.22 0,-93.37 -0.49,-95.6c-0.57,-2.84 -1.37,-10.84 1.72,-14.21c1.18,-1.27 2.93,-1.75 5.35,-1.45c1.78,0.22 4.44,1.91 7.81,4c18.84,12 63,40.09 216.09,-0.34c11.6,-3.06 15.35,3.25 19.32,9.93c2.74,4.61 5.57,9.37 11.07,9.73c11.54,0.84 14.77,-12.68 18.21,-26.89c4.47,-18.44 9.54,-39.33 31.36,-40.26c25.65,-1.08 56.75,6.79 59.91,32.53c1.29,10.55 -0.43,18 -5.11,22.15s-11.86,4.16 -15.62,3.73c-1,-4.45 -4,-15 -10.5,-20.17c-9.29,-7.48 -25,-7.44 -25.64,-7.4l-2.76,0l0.13,2.76c0,0.69 0.93,17.1 10.94,26.21a22.92,22.92 0 0 0 15.71,6.23a23.53,23.53 0 0 0 10.59,-2.39c4.37,0.63 13.82,1.11 20.65,-4.91c6.09,-5.37 8.41,-14.38 6.89,-26.79c-3.59,-29.3 -37.47,-38.4 -65.41,-37.21c-25.83,1.09 -31.64,25.06 -36.31,44.32c-3.5,14.43 -6,23.29 -12.7,22.82c-2.56,-0.16 -4.27,-2.82 -6.83,-7.13c-4.13,-6.94 -9.79,-16.44 -25.26,-12.35c-150.87,39.83 -193.63,12.62 -211.88,1c-4.08,-2.6 -7,-4.48 -10,-4.85c-5.23,-0.65 -8.27,1.35 -9.92,3.13c-5.47,5.92 -3.28,17.57 -3,18.88c0.11,0.54 11.07,54.15 0.56,93.14l-0.17,0.65c-7.14,26.47 -11.07,41.06 -0.28,52.14c12.62,13 58.37,24.62 110,24.62c40.86,0 85.38,-7.32 120,-27.11c11.54,-6.6 11,-20.08 10.39,-33.11c-0.59,-13.61 -1.14,-26.46 10.26,-32.79c11,-5 19,-4.94 26,-2.66c0.6,8.17 3.65,29.8 19.08,46.77l3.94,-3.58c-12.72,-14 -16.38,-31.91 -17.42,-40.86c2.9,1.45 5.73,3.2 8.66,5c8.14,5 16.56,10.24 28.66,10.34l0.88,0c24.43,0 48.56,-9.25 63.11,-22.22c1.31,0.65 2.62,1.29 4,2c13.64,6.84 30.57,15.39 59.34,13.68c22.61,-1.32 31.85,-8.21 40,-14.28c6.1,-4.55 11.37,-8.47 21.74,-9.24c5.39,-0.38 10,2.68 13.7,9.13c11,19.12 9.61,58.39 2.6,68.65c-14.88,21.76 -90.24,35.34 -155,11l-1.87,5c24.66,9.28 51.57,13.32 76.37,13.32c39.74,0 74.05,-10.38 84.92,-26.28c8.7,-13.01 8.97,-54.37 -2.54,-74.36zm-220.44,-60.52c-3.13,-0.94 -6,-3.72 -7.81,-5.77c2.59,-1.11 6.64,-2.39 10.28,-1.53a9.17,9.17 0 0 1 6.87,6.19c-2.61,0.92 -6.59,1.92 -9.34,1.11zm24.56,-13c-6.1,-5.55 -8.19,-14.9 -8.88,-19.62c4.63,0.33 13.64,1.56 19.29,6.1c5.08,4.09 7.67,13.06 8.61,17a17.66,17.66 0 0 1 -19.02,-3.52l0,0.04z"/>
   <path fill="#000000" stroke="#5b5555" id="svg_3" d="m403.13,155.24c7.87,-5.6 11.13,-19.23 11.27,-19.81l0.42,-1.79l-1.53,-1a21.44,21.44 0 0 0 -25.05,1.64c-9.7,7.81 -11.42,22.81 -11.48,23.44l-0.3,2.75l2.76,0.19c0.14,0 1.07,0.07 2.51,0.07c4.63,-0.03 14.59,-0.65 21.4,-5.49zm-11.55,-16.85a15.89,15.89 0 0 1 10.15,-3.77a17,17 0 0 1 7,1.55c-1.29,4.24 -4.25,11.61 -8.64,14.73c-5.21,3.71 -13.21,4.39 -17.5,4.46c0.88,-4.3 3.28,-12.36 8.99,-16.97z"/>
   <path fill="#000000" stroke="#5b5555" id="svg_4" d="m344.37,512.21c7.87,-5.6 11.13,-19.23 11.26,-19.81l0.42,-1.79l-1.53,-1a21.45,21.45 0 0 0 -25,1.63c-9.74,7.76 -11.46,22.76 -11.52,23.42l-0.3,2.74l2.76,0.2c0.14,0 1.07,0.07 2.52,0.07c4.62,0 14.59,-0.62 21.39,-5.46zm-11.56,-16.85a15.83,15.83 0 0 1 10.19,-3.77a17.12,17.12 0 0 1 7,1.54c-1.1,3.63 -3.92,11.39 -8.63,14.74c-5.2,3.71 -13.21,4.39 -17.5,4.46c0.83,-4.33 3.24,-12.33 8.94,-16.97z"/>
   <path fill="#000000" stroke="#5b5555" id="svg_5" d="m595.11,542.45c-1.11,-7.47 -5.7,-32.22 -18.28,-37.22c-18.12,-7.2 -42.56,-1.86 -62.2,2.44c-5.79,1.26 -11.26,2.46 -16,3.22c-34.82,5.57 -66.18,-2.46 -93.22,-23.87a25.49,25.49 0 0 0 -1.73,-6.72c-1.69,-3.77 -3.53,-7.27 -7.24,-8.63c-4.64,-1.69 -10.79,0.06 -26.29,7.5c-10.82,5.19 -21.59,-0.57 -30.87,-6.53a14.91,14.91 0 0 0 -12,-7.36c-8.59,-0.68 -16.52,6.12 -16.85,6.41l-2.09,1.81l1.88,2c0.29,0.3 7.07,7.49 14.61,8.49a12.17,12.17 0 0 0 1.6,0.1c6.16,0 12.68,-4.24 13.47,-4.77c8.06,4.88 20.17,10.59 32.55,4.66c11.25,-5.39 18.88,-8.49 22.16,-7.3c1.41,0.52 2.52,2 4.22,5.82c2,4.53 3.46,19.52 -2.48,33.63c-4.21,10 -11,16.77 -20.19,20.13c-14.72,5.38 -25.53,3.52 -38,1.36c-5.19,-0.89 -10.51,-1.8 -16.31,-2.22a86,86 0 0 0 -9.45,-0.19a38,38 0 0 0 -20.4,6.49c-19.66,13.56 -10.65,31.33 -3.4,45.61c7.42,14.62 11.39,23.92 0,30.77c-79.52,47.63 -191.78,65.5 -209,53.37c-11,-7.74 -16.89,-46.27 -18.61,-76.91c-0.99,-17.54 -8.42,-36.54 -14.99,-53.36c-10.19,-26 -15.85,-42.12 -4.24,-47.21c5.5,-2.41 15.13,-0.19 28.45,2.88c38,8.77 101.68,23.44 197.67,-33.81a6,6 0 0 1 5.36,-0.39a5.4,5.4 0 0 1 3.18,3.83c0.91,3.67 3.25,5.88 6.43,6.06c6,0.34 13.36,-6.9 17,-16.85s4.61,-18.46 5.37,-25.31c1.76,-15.8 2.56,-23 32.87,-26.89c31.38,-4 61.4,4.87 65.32,14.92c4.06,10.41 4.29,19.34 0.68,26.55c-5.38,10.75 -17.69,14.28 -18,14.38c-0.08,0 -7.82,2.79 -15.55,0.9a22.22,22.22 0 0 0 -13.07,-19.77c-11.73,-5.5 -26.53,-0.24 -27.15,0l-2.6,0.94l1,2.56c0.23,0.59 5.94,14.45 16,19.9c3.75,2 8.49,2.64 12.74,2.64a53.29,53.29 0 0 0 10.91,-1.17l0.29,-0.06a29.49,29.49 0 0 0 7.66,1a36.63,36.63 0 0 0 11.39,-1.83c0.6,-0.17 14.66,-4.14 21.13,-17c4.34,-8.63 4.19,-19 -0.45,-30.92c-5.82,-14.92 -42.27,-22 -71,-18.27c-32.93,4.22 -35.49,13.73 -37.48,31.58c-0.76,6.9 -1.63,14.72 -5.08,24.06c-3.13,8.51 -8.86,13.47 -11.73,13.38c-0.3,0 -1.08,-0.06 -1.56,-2a10.73,10.73 0 0 0 -6.29,-7.47a11.34,11.34 0 0 0 -10.14,0.73c-94.15,56.14 -156.5,41.78 -193.75,33.2c-14.32,-3.3 -24.68,-5.69 -31.78,-2.57c-16.89,7.39 -8.4,29 1.42,54c6.44,16.4 13.73,35 14.68,51.71c0.9,16.18 5.1,69.85 20.84,81c4,2.85 12.55,4.29 24.26,4.29c42.18,0 125.8,-18.68 190.51,-57.45c16.26,-9.74 8.71,-24.61 2.05,-37.74c-7.29,-14.35 -14.17,-27.9 1.67,-38.82a32.82,32.82 0 0 1 17.46,-5.57a84.24,84.24 0 0 1 8.63,0.17c11.55,1.81 17.51,8.58 17.7,20.15l0,8.48c-0.28,22 -0.74,58.89 19.55,77.06c7.77,7 17.87,10.45 30.11,10.45a74.45,74.45 0 0 0 8.89,-0.56c36.89,-4.55 44.79,-24.3 51.14,-40.18c5.35,-13.37 9.24,-23 28.33,-21.15c64,6.29 99.28,4.84 111.09,-4.56c8.84,-7.13 9.98,-29.23 7.2,-48zm-269.65,-63.71c-3.48,-0.47 -7,-2.95 -9.19,-4.79c2.67,-1.7 6.81,-3.62 10.56,-3.36a9.64,9.64 0 0 1 8.23,5.41c-2.55,1.39 -6.62,3.13 -9.6,2.74zm21.79,-19.57c-5.95,-3.23 -10.29,-10.56 -12.31,-14.53c4.43,-1.12 13.27,-2.63 20.27,0.65a16.72,16.72 0 0 1 10,15.23c-4.57,0.75 -12.96,1.38 -17.96,-1.35zm237.33,127c-10.36,8.25 -46.43,9.4 -107.25,3.42c-23.09,-2.29 -28.28,10.72 -33.79,24.47c-6.13,15.34 -13.08,32.71 -46.85,36.88c-14.72,1.82 -26.42,-1.07 -34.8,-8.57c-18.49,-16.57 -18,-51.91 -17.78,-73c0,-3.27 0.08,-6.19 0,-8.64c-0.12,-7.51 -2.31,-13.48 -6.39,-17.79c12.49,2.16 24.38,4.08 40.2,-1.71c10.48,-3.83 18.52,-11.8 23.26,-23a62.61,62.61 0 0 0 4.64,-24.14c27.39,20.2 58.85,27.66 93.59,22.09c4.91,-0.78 10.45,-2 16.32,-3.27c18.93,-4.14 42.49,-9.29 59.1,-2.69c6.5,2.58 12.38,15.56 15,33c2.95,19.78 0.68,38.26 -5.25,42.99l0,-0.04z"/>
   <path fill="#000000" stroke="#5b5555" id="svg_6" d="m382,373.84l-1.54,-0.84c-1,-0.52 -9.58,-5.05 -16.29,-3.34c-7.7,2 -13.73,10.56 -14,10.93l-1.49,2.15l2.13,1.53c0.34,0.24 7.53,5.3 15.33,5.3a16.46,16.46 0 0 0 3,-0.28a15.26,15.26 0 0 0 11.71,-9.93a10.77,10.77 0 0 1 4.61,5.65c2.71,7.59 -2.61,17.58 -2.66,17.68l4.67,2.54c0.27,-0.49 6.5,-12.14 3,-22a16.54,16.54 0 0 0 -8.47,-9.39zm-13.82,10.16c-4.33,0.8 -9.08,-1.18 -11.87,-2.67c2,-2.29 5.43,-5.63 9.13,-6.57c3.17,-0.82 7.84,0.76 10.68,2a10,10 0 0 1 -7.94,7.24z"/>
   <path fill="#000000" stroke="#5b5555" id="svg_7" d="m555.62,349.73c-3.57,-4.07 -8.12,-5.62 -13.16,-4.5c-28.86,6.41 -46.16,7 -57.86,2c-2.21,-0.95 -5.19,-2.42 -8.65,-4.12c-19.26,-9.48 -54.64,-26.89 -87,-20.78a42,42 0 0 0 -1,-5.27l-0.35,-1.35c-1.52,-6.13 -3.41,-13.75 -20.46,-16.05c-8.42,-1.13 -15.08,0.73 -20.43,2.24c-5.78,1.62 -9.11,2.37 -12.16,0.26a15.09,15.09 0 0 0 -7.45,-13.76c-7.39,-4.47 -17.49,-2.05 -17.92,-1.95l-2.68,0.66l0.76,2.66c0.11,0.4 2.89,9.88 9.15,14.2c3.49,2.4 8.44,2.88 11.83,2.88c1.72,0 3,-0.12 3.51,-0.17c5.17,3.43 10.64,2 16.4,0.34c5.14,-1.44 11,-3.08 18.28,-2.09c13.46,1.82 14.64,6.57 16,12.06l0.36,1.44c0.63,2.38 3.46,14.83 -3,25.56c-4,6.68 -10.94,11.17 -20.48,13.34c-12.49,2.84 -19.36,2.09 -26.62,1.29c-9.31,-1 -19.85,-2.17 -43.22,3.85a68.34,68.34 0 0 0 -10.25,3.83l-0.34,0.13c-12.63,6.12 -16.75,14.49 -17.39,23.22a84.51,84.51 0 0 0 -11.91,-15.77a96.72,96.72 0 0 0 -8.55,-8l0.1,-0.11c-0.79,-0.69 -19.07,-17.29 -8.38,-38.07c8.11,-15.79 21.75,-16.4 27.66,-15.82c0.22,3.55 1.26,13 6.14,18.16c6.75,7.09 19.71,8.38 20.26,8.43l2.61,0.25l0.28,-2.61c0.07,-0.58 1.46,-14.32 -5.67,-22.83a18.85,18.85 0 0 0 -19.51,-6.14c-1.14,-0.26 -24.44,-5.35 -36.51,18.13c-6.46,12.56 -3.83,23.88 0.3,32c-16.48,-8.87 -29.32,-7.14 -32.57,-6.47c-5.34,-1.71 -15.93,-2.11 -23,7.29c-7.35,9.75 -5,24.8 -4.93,25.43l0.41,2.6l2.6,-0.38c0.6,-0.09 14.8,-2.26 21.81,-10.42c4.76,-5.55 5.57,-15.15 5.69,-19.54c6.09,-0.74 25.72,-1 47.43,21.79a73.43,73.43 0 0 1 17.82,30.32c0.06,0.31 0.13,0.62 0.2,0.92c3.15,14.7 4.46,24 -7.6,30.31c-6.59,3.43 -13.18,6.52 -19.75,9.37c-24.57,9.36 -56,12.91 -74.87,8.44c-11.82,-2.79 -16.35,-12.69 -17.77,-16.91l1,-0.36c1,-0.35 9.88,-3.66 13,-9.65c3.58,-6.87 1.25,-16.82 1.15,-17.24l-0.61,-2.55l-2.56,0.58c-0.45,0.1 -11,2.56 -15.57,10.07l-0.17,0.32a18.78,18.78 0 0 0 -2.91,-4.58c-7.27,-8.18 -21.75,-10.13 -22.37,-10.21l-2.6,-0.33l-0.37,2.6c-0.09,0.65 -2.18,16 5.47,25.77a20.44,20.44 0 0 0 16.58,8.1a23,23 0 0 0 5,-0.57c1.85,5.32 7.4,16.81 21.49,20.14a89.58,89.58 0 0 0 20.27,2c4.16,0 8.53,-0.23 13,-0.63c-61.36,16.64 -114.46,11.29 -133.93,4c-11.86,-4.43 -21.77,-16 -25.24,-29.54c-4.68,-18.21 -2.13,-33 7.59,-44.05a0.6,0.6 0 0 1 0.08,-0.08a22.46,22.46 0 0 0 18.48,14.53a23.46,23.46 0 0 0 2.89,0.17c12.26,0 23.54,-9 24,-9.45l2,-1.66l-1.62,-2.06c-0.42,-0.52 -10.29,-12.88 -21.91,-15.07a18.47,18.47 0 0 0 -3.08,-0.27l0.86,-0.36c16.11,-6.05 35.61,-7 52.28,-5.15c0.49,4.45 2.12,13.75 7.23,18.81c7.65,7.57 22,8.57 22.59,8.61l2.62,0.16l0.2,-2.61c0.05,-0.64 1.14,-15.83 -7,-24.95s-19,-7.44 -24,-5.19a137.61,137.61 0 0 0 -37.62,0.63c7.73,-6.29 14.57,-15.42 12.28,-27.31c-2.54,-13.24 -10.42,-18.73 -24.12,-16.8c-12.51,1.76 -17.4,-0.59 -23.2,-5.63c-1.88,-1.89 -5.92,-5.5 -10.28,-6.65c-1.39,-11.82 5.4,-16.2 5.68,-16.37l0.32,-0.22c2.07,-1.67 9.34,0.81 17.77,3.69c29.92,10.22 92.21,31.5 198.3,-17.9c7.48,-3.48 11,-0.22 16,4.28c4.16,3.79 8.84,8.18 16.44,7.81c11.72,-0.42 13,-12.73 14.44,-25.75c1.94,-18 3.94,-36.7 29,-36.71l0.05,0c34.11,0 57.05,8.54 62.95,23.43c3.54,8.93 3.62,15.67 0.23,20c-5.13,6.59 -16.94,6.78 -22.17,6.51l-0.08,-0.13c-0.33,-0.59 -8.18,-14.39 -18.47,-18c-11.7,-4.09 -27.07,1.47 -27.72,1.7l-2.59,1l1.05,2.55c0.27,0.67 6.88,16.44 19.87,21.88a24.94,24.94 0 0 0 9.65,2a24.45,24.45 0 0 0 15.6,-5.79c3.48,0.37 21.19,1.68 29,-8.37c4.64,-6 4.82,-14.45 0.53,-25.27c-9.23,-23.3 -46.48,-26.79 -67.9,-26.79l-0.05,0c-29.81,0 -32.38,24 -34.26,41.46c-1.38,12.86 -2.57,20.76 -9.34,21c-5.39,0.16 -8.93,-3 -12.67,-6.43c-5.23,-4.76 -11.15,-10.14 -21.81,-5.17c-104.15,48.5 -165.07,27.69 -194.34,17.68c-11.41,-3.9 -18.33,-6.27 -22.7,-2.9c-1.39,0.9 -9.54,6.82 -8.17,20.76c-6.22,1.24 -11.79,6.39 -12.06,6.64l-1.68,1.57l1.31,1.9c0.27,0.38 6.65,9.45 14.94,10.37a14.14,14.14 0 0 0 1.56,0.09c5.75,0 9.6,-3.66 11.68,-7c5.95,4.2 12.14,5.73 23.85,4.08c10.89,-1.54 16.15,2.1 18.15,12.54c3.82,19.83 -26.34,31.48 -26.65,31.59c-8.73,3.47 -16.54,8.38 -22.48,15.12c-11,12.43 -13.9,28.88 -8.76,48.9c3.89,15.14 15.1,28.17 28.54,33.2c10.34,3.86 29.89,7.21 55,7.21a320.5,320.5 0 0 0 126,-26.44q9.9,-4.31 19.83,-9.46c9.3,-4.84 12.24,-11.73 12.55,-19.16c0.05,-0.58 0.57,-8.26 -2.7,-19.08c-2.92,-13.85 -4.62,-26 12.32,-34.23c0.1,0 10.3,-4 19.62,0.55c6.09,2.94 10.53,8.88 13.19,17.66c0,0.13 3.95,12.77 6,15.83l4.45,-2.93c-0.95,-1.65 -3.95,-10.28 -5.23,-14.46c-3.11,-10.26 -8.48,-17.3 -16,-20.91a25.47,25.47 0 0 0 -3.74,-1.45c16.71,-3.55 25,-2.65 33.08,-1.77c7.72,0.85 15,1.65 28.38,-1.39c11,-2.5 19,-7.81 23.85,-15.78a36.89,36.89 0 0 0 4.94,-19c10.92,-2.18 22.33,-1.48 33.36,0.8c1.45,0.69 9.25,4.69 11.16,11.64c1,3.75 0.15,7.88 -2.6,12.31a15.23,15.23 0 0 0 -15,5.95c-5.22,6.86 -4,17 -4,17.45l0.35,2.81l2.78,-0.53c0.41,-0.07 10,-1.94 14.95,-7.7c3.51,-4.09 4.24,-10.8 4.38,-13.71c4.33,-6.25 5.76,-12.31 4.19,-18a19.38,19.38 0 0 0 -3.63,-6.92c15.14,4.67 28.77,11.37 38.32,16.07c3.52,1.73 6.57,3.23 8.9,4.23c13,5.58 30.68,5.09 61.11,-1.67c3.16,-0.7 5.71,0.19 8,2.81c12.51,14.27 9.79,69.72 4.36,84.6c-1.69,4.62 -9,16.32 -39.29,17.84c5.48,-6.43 14.11,-18.79 14.22,-33.09a34.73,34.73 0 0 0 -6.26,-20c3.61,-1.91 10.39,-6.09 13.13,-11.78c4.23,-8.78 1.47,-21.14 1.35,-21.66l-0.63,-2.76l-2.72,0.8c-0.53,0.16 -13.18,4 -18.56,13.68a19.46,19.46 0 0 0 -2.56,10.87c-12.45,-10.71 -25.72,-16 -39.67,-15.52c-18.19,0.54 -32.37,10.55 -38.91,16.14l-0.28,-0.13c-1,-0.43 -10,-4.22 -16.51,-1.94c-7.51,2.61 -12.78,11.7 -13,12.08l-1.3,2.28l2.26,1.33c0.34,0.2 6.93,4 14.1,4a17.07,17.07 0 0 0 4.63,-0.6a15,15 0 0 0 8.82,-6.42a21.89,21.89 0 0 0 7.27,16.67c8.43,7.84 21.78,8.35 25.1,8.35l0.74,0l2.76,-0.1l-0.2,-2.75c0,-0.64 -1.22,-15.58 -9.1,-23.84c-4.68,-4.91 -12.83,-7.11 -17.81,-8c6.93,-5.06 18.15,-11.35 31.6,-11.75c13.66,-0.43 26.82,5.32 39.15,17c7.55,7.17 11.34,15.23 11.29,24c-0.11,16.2 -13.27,30.3 -16.29,33.32a231.3,231.3 0 0 1 -38.19,-3.86c-22.44,-3.91 -33.39,-8.22 -42.18,-11.68c-6.2,-2.44 -11.55,-4.55 -19.07,-5.8l-0.87,5.25c7,1.16 11.83,3.07 18,5.5c9,3.55 20.24,8 43.22,12a234.51,234.51 0 0 0 39.83,3.9c38.22,0 48.38,-14.13 51.06,-21.48c5.28,-14.52 9.46,-73.04 -5.37,-89.96zm-236.19,-50.16c-2.89,-2 -4.89,-5.79 -6,-8.43c2.95,-0.28 7.5,-0.28 10.94,1.79a9.67,9.67 0 0 1 4.87,8.56c-2.91,0.09 -7.32,-0.2 -9.81,-1.92zm-39.43,17.14c4,4.76 4.58,12.08 4.58,16.06c-3.76,-0.71 -10.4,-2.47 -14.12,-6.38c-3.14,-3.3 -4.32,-10.1 -4.64,-14a13.42,13.42 0 0 1 14.18,4.32zm-91.38,55.12c-4.07,4.74 -11.71,7.1 -15.8,8.07c-0.27,-4.35 -0.13,-12.88 4.2,-18.62a14.69,14.69 0 0 1 12.17,-6.14a17.83,17.83 0 0 1 3.85,0.42c-0.16,4.44 -1.04,12.3 -4.47,16.27l0.05,0zm-67.22,59.31c-4.52,-5.78 -4.81,-14.54 -4.61,-19c4.17,0.9 12.06,3.16 16.31,7.95c3.57,4 4.62,12.1 4.81,16.57a15.55,15.55 0 0 1 -16.51,-5.52zm23.31,-7.54c2.18,-3.59 6.61,-5.72 9.48,-6.79c0.36,2.92 0.53,7.48 -1.16,10.72c-1.45,2.77 -5.53,5.11 -8.26,6.35a9.64,9.64 0 0 1 -0.06,-10.28zm-7,-45.51c4.77,5.35 5.61,13.85 5.7,18.22c-4.16,-0.63 -12,-2.36 -16.4,-6.75c-3.72,-3.68 -5.26,-11.49 -5.73,-15.86c3.22,-0.98 10.57,-2.19 16.42,4.39l0.01,0zm210.11,-91.63c-8.05,-3.37 -13.42,-12 -15.72,-16.36c4.64,-1.29 14.09,-3.31 21.31,-0.79c6.5,2.27 12.25,10.32 14.54,13.86a18.57,18.57 0 0 1 -20.14,3.29l0.01,0zm-315.37,42.25c-3.74,-0.42 -7.45,-3.74 -9.63,-6.21c2.42,-1.81 6.19,-4.11 9.44,-3.94c2,0.08 4.48,1.6 6.61,3.31c0.69,0.65 1.37,1.25 2,1.84c-1.07,2.06 -3.64,5.53 -8.42,5zm32.55,56.83c7.06,1.33 13.76,7.68 16.88,11c-3.95,2.65 -12.49,7.53 -20.68,6.51c-10.1,-1.25 -13.59,-9.09 -14.66,-12.64c3.52,-1.89 12.11,-6.06 18.46,-4.87zm361.3,-18.54c-2.26,2.63 -6.15,4.25 -8.86,5.12c0.07,-2.92 0.63,-7.31 3,-10.47a9.72,9.72 0 0 1 8,-4.08q0.46,0 0.87,0c-0.25,2.88 -1.05,7.13 -3.01,9.43zm-1.75,37.28c-4.25,1.19 -9.16,-0.4 -12.07,-1.65c1.94,-2.63 5.12,-6.13 8.55,-7.32c3.09,-1.07 7.88,0.09 10.81,1.09a10,10 0 0 1 -7.29,7.87l0,0.01zm33,0.7c4.68,4.91 6.57,13.22 7.27,17.62c-4.56,-0.29 -13.42,-1.56 -19.1,-6.84a16.73,16.73 0 0 1 -4.85,-17.55c4.54,0.67 12.71,2.64 16.64,6.79l0.04,-0.02zm64.36,-21.54c2.94,-5.29 9,-8.54 12.58,-10.08c0.48,3.79 0.84,10.34 -1.47,15.13c-2,4.06 -7.47,7.63 -10.91,9.44a13.87,13.87 0 0 1 -0.24,-14.5l0.04,0.01z"/>
   <path fill="#000000" stroke="#5b5555" id="svg_8" d="m358.77,340.59c9.93,0 20.87,-9.1 21.33,-9.49l1.41,-1.19l-0.61,-1.73a22.23,22.23 0 0 0 -21.84,-14.18c-12.94,0.47 -23.72,11.89 -24.17,12.38l-1.88,2l2.09,1.8c0.48,0.42 11.88,10.15 23.29,10.42l0.38,-0.01zm0.48,-21.31a16.68,16.68 0 0 1 15.84,9c-3.16,2.34 -10.49,7.18 -16.58,7c-6.77,-0.16 -14,-4.7 -17.59,-7.31c3.44,-3.04 10.61,-8.41 18.33,-8.69z"/>
   <path fill="#000000" stroke="#5b5555" id="svg_9" d="m503.9,425.56a18.77,18.77 0 0 0 8.77,1.84a34.19,34.19 0 0 0 6.85,-0.71l1.84,-0.41l0.23,-1.87a15.18,15.18 0 0 0 -8.93,-15.19c-7.82,-3.66 -17.48,-0.32 -17.89,-0.18l-2.67,0.94l1.1,2.61c0.16,0.41 4.03,9.41 10.7,12.97zm6.51,-11.56a9.76,9.76 0 0 1 5.84,7.8c-2.84,0.35 -7.16,0.47 -9.82,-1c-3.06,-1.66 -5.47,-5.12 -6.9,-7.59c3.06,-0.5 7.47,-0.78 10.88,0.79z"/>
   <path fill="#000000" stroke="#5b5555" id="svg_10" d="m31.85,386.5l1.64,-0.62c0.66,-0.26 16.17,-6.28 21.11,-16.28c5.62,-11.39 1.4,-27.87 1.19,-28.6l-0.66,-2.54l-2.55,0.63c-0.74,0.19 -18.2,4.65 -25.38,17.14c-7.27,12.65 -0.94,24.49 3.43,29l1.22,1.27zm0,-27.58c4.53,-7.89 14.61,-12.16 19.41,-13.81c0.88,4.81 2.13,15 -1.4,22.13c-3.17,6.41 -12.6,11.18 -16.51,12.93c-2.35,-3.17 -7.16,-11.47 -1.53,-21.25l0.03,0z"/>
   <path fill="#000000" stroke="#5b5555" id="svg_11" d="m229.5,427.19c6.4,4.64 16.15,5.54 22.78,5.54a64.66,64.66 0 0 0 7.14,-0.36l1.73,-0.21l0.5,-1.68c0.06,-0.2 5.6,-19.82 -11.86,-30.87c-13.85,-8.77 -33.84,-4 -34.69,-3.79l-2.55,0.62l0.59,2.56c0.19,0.8 4.66,19.7 16.36,28.19zm17.44,-23.09c11.43,7.24 10.73,18.77 10,23.14c-4.74,0.33 -17.4,0.64 -24.3,-4.36c-7.69,-5.59 -12,-17.18 -13.55,-22.42c5.56,-0.91 18.63,-2.19 27.85,3.64z"/>
   <path fill="#000000" stroke="#5b5555" id="svg_12" d="m42.37,403.41l-1.64,-0.63l-1.23,1.22a15.25,15.25 0 0 0 -2.19,18.05c4.35,7.63 14.86,10.35 15.31,10.46l2.54,0.64l0.68,-2.53c0.11,-0.42 2.68,-10.31 -0.72,-17.26c-2.97,-6.04 -11.76,-9.57 -12.75,-9.95zm8.86,23.06c-2.84,-1.13 -7.22,-3.37 -9.3,-7a9.63,9.63 0 0 1 0.31,-10.27c2.7,1.31 6.72,3.75 8.1,6.56c1.66,3.24 1.32,7.8 0.89,10.71z"/>
   <path fill="#000000" stroke="#5b5555" id="svg_13" d="m131.64,339.88c-0.45,0 -10.92,0.76 -16.57,6.35c-4.93,4.87 -5.49,14.59 -5.53,15.68l-0.08,1.75l1.58,0.76a16,16 0 0 0 6.75,1.44a15,15 0 0 0 11.51,-5.2c6,-6.74 5.2,-17.86 5.16,-18.33l-0.2,-2.62l-2.62,0.17zm-6.32,17.24a10,10 0 0 1 -10.32,3.07c0.39,-3.06 1.44,-7.87 3.78,-10.18c2.72,-2.69 7.37,-3.92 10.35,-4.44c-0.13,3.43 -1.03,8.43 -3.81,11.55z"/>
   <path fill="#000000" stroke="#5b5555" id="svg_14" d="m186.54,317l-2.3,-1.25l-1.24,2.25c-0.23,0.41 -5.64,10.17 -3,18.8a15.63,15.63 0 0 0 14.72,11.2l0.14,0l1.76,0l0.66,-1.62c0.42,-1 4,-10.05 1.61,-16.55c-2.77,-7.53 -11.96,-12.61 -12.35,-12.83zm6.46,25.43a10,10 0 0 1 -8,-7.13c-1.27,-4.22 0.21,-9.16 1.4,-12.1c2.67,1.89 6.24,5 7.5,8.4c1.1,3.07 0.1,7.88 -0.9,10.83z"/>
   <path fill="#000000" stroke="#5b5555" id="svg_15" d="m865.74,457.25l0,2.75c-0.09,24.08 -17.31,25.92 -23.54,25.92c-17.22,0 -27,-10.39 -27,-30.61c0,-21.23 10.64,-31.89 27.41,-31.89c10.83,0 18.67,4.42 20.21,13.61l-4,1.1c-0.91,-5.06 -5.32,-10.66 -16.42,-10.66c-14,0 -22.63,9.19 -22.63,27.57c0,17 7.49,26.93 22.63,26.93c6.14,0 18.49,-1.75 19,-20.87l-17,0l0,-3.85l21.34,0z"/>
   <path fill="#000000" stroke="#5b5555" id="svg_16" d="m905.7,446.31l-14.79,38.69c-4.15,10.48 -10.37,20.68 -18.49,20.68a7.17,7.17 0 0 1 -3.15,-0.65l0.81,-3.4a5.71,5.71 0 0 0 2.07,0.37c6.5,0 11.73,-9.74 15.06,-18.1l-15.6,-37.59l4.6,0l13.08,32.17l12.17,-32.17l4.24,0z"/>
   <path fill="#000000" stroke="#5b5555" id="svg_17" d="m911.66,465.7c0,-12.5 7.21,-20.31 18.4,-20.31s17.85,7.72 17.85,20s-7.13,20.5 -18.22,20.5s-18.03,-7.89 -18.03,-20.19zm31.92,-0.18c0,-10.3 -5.23,-16.55 -13.62,-16.55c-8.56,0 -13.88,6.25 -13.88,16.64s5.23,16.72 13.61,16.72s13.89,-6.43 13.89,-16.81zm-5.86,-38.14l4.78,0l-11.63,12.49l-3.7,0l10.55,-12.49z"/>
   <path fill="#000000" stroke="#5b5555" id="svg_18" d="m992.55,492.72c0,7.72 -6.67,13.42 -19.56,13.42c-10.74,0 -17.23,-3.77 -17.23,-10.85c0,-4.41 2.35,-8.08 6.58,-10.66a5.92,5.92 0 0 1 -2.43,-5.14c0,-3.31 1.89,-5.7 4.33,-7.36c-4.42,-2.39 -7,-6.71 -7,-12.31c0,-8.92 6.41,-14.43 15.78,-14.43a16,16 0 0 1 2.08,0.09l16.59,0l0,3.31l-8.29,-0.28c3.15,2.49 5,6.34 5,11.31c0,8.91 -6,14.43 -15.42,14.43a22.38,22.38 0 0 1 -6.31,-0.92c-1.53,1 -3.06,2.57 -3.06,4.69c0,1.93 1.44,4.31 5.14,4.31l9,0c10.39,0 14.8,4.23 14.8,10.39zm-3.88,0.55c0,-4.41 -3.6,-7.35 -11.18,-7.35l-10.19,0a13.48,13.48 0 0 1 -2,-0.18c-4.42,2.75 -5.59,6.06 -5.59,8.82c0,5.15 4.87,8.18 13.89,8.18c10.11,0 15.07,-3.96 15.07,-9.47zm-27.14,-33.54c0,7.16 4.6,11.3 11.46,11.3s11.27,-4.23 11.27,-11.12s-4.26,-11.21 -11.37,-11.21c-6.76,0 -11.36,3.86 -11.36,11.03z"/>
   <path fill="#000000" stroke="#5b5555" id="svg_19" d="m1032.69,446.31l-14.79,38.69c-4.15,10.48 -10.37,20.68 -18.49,20.68a7.17,7.17 0 0 1 -3.15,-0.65l0.81,-3.4a5.72,5.72 0 0 0 2.08,0.37c6.49,0 11.72,-9.74 15.05,-18.1l-15.6,-37.59l4.6,0l13.08,32.17l12.17,-32.17l4.24,0z"/>
   <path fill="#000000" stroke="#5b5555" id="svg_20" d="m1064.89,482.88a17.83,17.83 0 0 1 -9.92,3c-6.49,0 -10.82,-4.23 -10.82,-14.15l0,-21.84l-6.85,0l0,-3.58l6.85,0l0,-11.21l4.33,-1.11l0,12.32l14.79,0l0,3.58l-14.79,0l0,20.4c0,6.44 1.62,11.77 7.93,11.77a16.28,16.28 0 0 0 7.94,-2.48l0.54,3.3z"/>
   <path fill="#000000" stroke="#5b5555" id="svg_21" d="m1071.12,465.7c0,-12.5 7.21,-20.31 18.39,-20.31s17.86,7.72 17.86,20s-7.12,20.5 -18.22,20.5s-18.03,-7.89 -18.03,-20.19zm31.92,-0.18c0,-10.3 -5.23,-16.55 -13.61,-16.55c-8.57,0 -13.89,6.25 -13.89,16.64s5.23,16.72 13.61,16.72s13.85,-6.43 13.85,-16.81l0.04,0z"/>
   <path fill="#000000" stroke="#5b5555" id="svg_22" d="m1140.56,445.85l-0.18,4.32l-0.27,0.09a9,9 0 0 0 -3.34,-0.64c-4.69,0 -9.1,3.4 -12.71,8.08l0,27.3l-4.33,0l0,-38.69l4.27,0l0.09,7.26c3.06,-3.86 7.84,-8.18 13.44,-8.18a8.17,8.17 0 0 1 3.03,0.46z"/>
   <path fill="#000000" stroke="#5b5555" id="svg_23" d="m1186.56,484.82a7.76,7.76 0 0 1 -4.15,1.1c-3.43,0 -5.5,-1.75 -5.5,-7.17l0,-17.1c0,-8.08 -2.71,-12.31 -10,-12.31c-5.5,0 -10,2.67 -13.62,6.34l0,29.32l-4.29,0l0,-38.69l4,0l0.36,5.51c3.88,-3.77 8.57,-6.43 14.88,-6.43c9.29,0 13.08,5.24 13.08,14.89l0,17.46c0,3.86 0.9,4.78 3,4.78a5.23,5.23 0 0 0 2.07,-0.46l0.17,2.76z"/>
   <path fill="#000000" stroke="#5b5555" id="svg_24" d="m1230.39,484.82a8.38,8.38 0 0 1 -4.24,1.1c-2.79,0 -5,-1.38 -5.41,-5.42a20.9,20.9 0 0 1 -14.24,5.42c-8.3,0 -12.81,-4.32 -12.81,-10.75c0,-8.09 7.21,-11.4 16,-11.4a33,33 0 0 1 10.91,1.84l0,-6.07c0,-6.52 -2.7,-10.38 -10.46,-10.38a22.26,22.26 0 0 0 -12.62,3.95l-0.54,-3.58a24.07,24.07 0 0 1 13.79,-4.14c7.58,0 14.07,2.94 14.07,13.6l0,18.75c0,4.41 1.81,5.7 5.14,4.32l0.41,2.76zm-9.74,-8.09l0,-7.73a28.61,28.61 0 0 0 -10.37,-1.84c-7.21,0 -12.17,2.48 -12.17,7.72s4.42,7.35 9.29,7.35a19.07,19.07 0 0 0 13.25,-5.5z"/>
   <path fill="#000000" stroke="#5b5555" id="svg_25" d="m1289.74,481.6a22.1,22.1 0 0 1 -13.61,4.32c-12.63,0 -18.31,-9 -18.31,-20c0,-11.95 6.58,-20.49 17.49,-20.49s15.51,8.64 14,19.76l-27.14,0c0,10.75 5.5,17.18 14.7,17.18a20.37,20.37 0 0 0 11.9,-3.76l0.97,2.99zm-27.41,-19.76l23.17,0c0.54,-7.81 -3.24,-13.23 -10.37,-13.23s-11.81,5.51 -12.8,13.23zm13.7,-22l-3.69,0l10.55,-12.49l4.78,0l-11.64,12.49z"/>
   <path fill="#000000" stroke="#5b5555" id="svg_26" d="m1298.13,476.45l3.61,-1.47c1.08,3.22 3.7,7.35 11.63,7.35c6.41,0 10.37,-2.84 10.37,-7.26c0,-10.2 -23.35,-6 -23.35,-19.11c0,-6.71 6.13,-10.57 13.52,-10.57c7,0 12.9,3.22 13.53,10.57l-3.43,0.92c-0.72,-6.25 -6,-8 -10.19,-8c-5.5,0 -9.38,2.67 -9.38,6.71c0,9.38 23.45,5.7 23.45,19.12c0,7.81 -7.12,11.21 -14.88,11.21c-8.93,0 -13.43,-4.41 -14.88,-9.47z"/>
   <path fill="#000000" stroke="#5b5555" id="svg_27" d="m1392.56,492.72c0,7.72 -6.67,13.42 -19.57,13.42c-10.73,0 -17.22,-3.77 -17.22,-10.85c0,-4.41 2.34,-8.08 6.58,-10.66a5.92,5.92 0 0 1 -2.43,-5.14c0,-3.31 1.89,-5.7 4.32,-7.36c-4.41,-2.39 -6.94,-6.71 -6.94,-12.31c0,-8.92 6.4,-14.43 15.78,-14.43a15.93,15.93 0 0 1 2.07,0.09l16.6,0l0,3.31l-8.3,-0.28c3.16,2.49 5,6.34 5,11.31c0,8.91 -6,14.43 -15.42,14.43a22.32,22.32 0 0 1 -6.31,-0.92c-1.53,1 -3.07,2.57 -3.07,4.69c0,1.93 1.45,4.31 5.14,4.31l9,0c10.35,0 14.77,4.23 14.77,10.39zm-3.88,0.55c0,-4.41 -3.61,-7.35 -11.18,-7.35l-10.19,0a13.48,13.48 0 0 1 -2,-0.18c-4.42,2.75 -5.59,6.06 -5.59,8.82c0,5.15 4.87,8.18 13.88,8.18c10.12,0 15.08,-3.96 15.08,-9.47zm-27.14,-33.54c0,7.16 4.6,11.3 11.45,11.3s11.27,-4.23 11.27,-11.12s-4.26,-11.21 -11.36,-11.21c-6.76,0 -11.36,3.86 -11.36,11.03z"/>
   <path fill="#000000" stroke="#5b5555" id="svg_28" d="m1432.7,446.31l-14.79,38.69c-4.15,10.48 -10.37,20.68 -18.49,20.68a7.17,7.17 0 0 1 -3.15,-0.65l0.81,-3.4a5.71,5.71 0 0 0 2.07,0.37c6.49,0 11.72,-9.74 15.06,-18.1l-15.6,-37.59l4.6,0l13.07,32.17l12.18,-32.17l4.24,0z"/>
   <path fill="#000000" stroke="#5b5555" id="svg_29" d="m1438.65,465.7c0,-12.5 7.22,-20.31 18.4,-20.31s17.86,7.72 17.86,20s-7.13,20.5 -18.22,20.5s-18.04,-7.89 -18.04,-20.19zm31.93,-0.18c0,-10.3 -5.24,-16.55 -13.62,-16.55c-8.57,0 -13.89,6.25 -13.89,16.64s5.23,16.72 13.62,16.72s13.89,-6.43 13.89,-16.81zm-5.87,-38.14l4.78,0l-11.63,12.49l-3.69,0l10.54,-12.49z"/>
   <path fill="#000000" stroke="#5b5555" id="svg_30" d="m1519.55,492.72c0,7.72 -6.67,13.42 -19.57,13.42c-10.73,0 -17.22,-3.77 -17.22,-10.85c0,-4.41 2.34,-8.08 6.58,-10.66a5.92,5.92 0 0 1 -2.43,-5.14c0,-3.31 1.89,-5.7 4.32,-7.36c-4.41,-2.39 -6.94,-6.71 -6.94,-12.31c0,-8.92 6.4,-14.43 15.78,-14.43a15.86,15.86 0 0 1 2.07,0.09l16.6,0l0,3.31l-8.3,-0.28c3.16,2.49 5,6.34 5,11.31c0,8.91 -6,14.43 -15.42,14.43a22.32,22.32 0 0 1 -6.31,-0.92c-1.53,1 -3.07,2.57 -3.07,4.69c0,1.93 1.45,4.31 5.14,4.31l9,0c10.35,0 14.77,4.23 14.77,10.39zm-3.88,0.55c0,-4.41 -3.6,-7.35 -11.18,-7.35l-10.19,0a13.48,13.48 0 0 1 -2,-0.18c-4.42,2.75 -5.59,6.06 -5.59,8.82c0,5.15 4.87,8.18 13.88,8.18c10.12,0 15.08,-3.96 15.08,-9.47zm-27.14,-33.54c0,7.16 4.6,11.3 11.45,11.3s11.27,-4.23 11.27,-11.12s-4.23,-11.21 -11.36,-11.21c-6.76,0 -11.36,3.86 -11.36,11.03z"/>
   <path fill="#000000" stroke="#5b5555" id="svg_31" d="m1559.69,446.31l-14.79,38.69c-4.15,10.48 -10.37,20.68 -18.49,20.68a7.17,7.17 0 0 1 -3.15,-0.65l0.81,-3.4a5.71,5.71 0 0 0 2.07,0.37c6.49,0 11.73,-9.74 15.06,-18.1l-15.6,-37.59l4.6,0l13.07,32.17l12.18,-32.17l4.24,0z"/>
   <path fill="#000000" stroke="#5b5555" id="svg_32" d="m1631,484.82a8.28,8.28 0 0 1 -4.23,1.1c-3.43,0 -5.5,-1.75 -5.5,-7.17l0,-17.37c0,-8 -2.71,-12.13 -8.21,-12.13c-5.14,0 -10.28,3.49 -13.17,6.34c0.09,1.1 0.18,2.3 0.18,3.58l0,25.83l-4.33,0l0,-24.45c0,-7.72 -2.7,-11.3 -8.56,-11.3c-5.23,0 -10.28,3.31 -13,6.16l0,29.59l-4.33,0l0,-38.69l4,0l0.27,5.14c3.61,-3.3 8.66,-6.06 14.25,-6.06s9.2,2.3 10.73,6.89c3.7,-3.49 9.38,-6.89 15.15,-6.89c7.48,0 11.27,5.15 11.27,14.52l0,18.2c0,3.58 1.09,4.41 3.07,4.41a4.94,4.94 0 0 0 2.07,-0.46l0.34,2.76z"/>
   <path fill="#000000" stroke="#5b5555" id="svg_33" d="m1674.86,484.82a8.38,8.38 0 0 1 -4.24,1.1c-2.79,0 -4.95,-1.38 -5.4,-5.42a21,21 0 0 1 -14.25,5.42c-8.3,0 -12.81,-4.32 -12.81,-10.75c0,-8.09 7.21,-11.4 16,-11.4a33,33 0 0 1 10.91,1.84l0,-6.07c0,-6.52 -2.7,-10.38 -10.46,-10.38a22.26,22.26 0 0 0 -12.62,3.95l-0.54,-3.58a24.11,24.11 0 0 1 13.8,-4.14c7.57,0 14.06,2.94 14.06,13.6l0,18.75c0,4.41 1.81,5.7 5.14,4.32l0.41,2.76zm-9.74,-8.09l0,-7.73a28.6,28.6 0 0 0 -10.36,-1.84c-7.22,0 -12.18,2.48 -12.18,7.72s4.42,7.35 9.29,7.35a19.07,19.07 0 0 0 13.25,-5.5z"/>
   <path fill="#000000" stroke="#5b5555" id="svg_34" d="m1681.91,476.45l3.6,-1.47c1.08,3.22 3.7,7.35 11.64,7.35c6.4,0 10.37,-2.84 10.37,-7.26c0,-10.2 -23.36,-6 -23.36,-19.11c0,-6.71 6.13,-10.57 13.53,-10.57c7,0 12.89,3.22 13.52,10.57l-3.42,0.92c-0.73,-6.25 -6,-8 -10.2,-8c-5.5,0 -9.37,2.67 -9.37,6.71c0,9.38 23.44,5.7 23.44,19.12c0,7.81 -7.12,11.21 -14.88,11.21c-8.92,0 -13.43,-4.41 -14.87,-9.47z"/>
   <path fill="#000000" stroke="#5b5555" id="svg_35" d="m1719.61,476.45l3.6,-1.47c1.09,3.22 3.7,7.35 11.64,7.35c6.4,0 10.37,-2.84 10.37,-7.26c0,-10.2 -23.36,-6 -23.36,-19.11c0,-6.71 6.14,-10.57 13.53,-10.57c7,0 12.89,3.22 13.53,10.57l-3.43,0.92c-0.72,-6.25 -6,-8 -10.19,-8c-5.5,0 -9.38,2.67 -9.38,6.71c0,9.38 23.45,5.7 23.45,19.12c0,7.81 -7.13,11.21 -14.88,11.21c-8.93,0 -13.44,-4.41 -14.88,-9.47z"/>
   <path fill="#000000" stroke="#5b5555" id="svg_36" d="m1786.61,481.23l0,3.77l-30,0l0,-1.93l23.62,-33l-22.45,0l0,-3.77l28.76,0l0,1.84l-23.62,33.08l23.69,0.01z"/>
   <path fill="#000000" stroke="#5b5555" id="svg_37" d="m1829.91,484.82a8.43,8.43 0 0 1 -4.24,1.1c-2.8,0 -5,-1.38 -5.41,-5.42a21,21 0 0 1 -14.25,5.42c-8.3,0 -12.81,-4.32 -12.81,-10.75c0,-8.09 7.22,-11.4 16.06,-11.4a33.07,33.07 0 0 1 10.91,1.84l0,-6.07c0,-6.52 -2.71,-10.38 -10.46,-10.38a22.3,22.3 0 0 0 -12.63,3.95l-0.54,-3.58a24.13,24.13 0 0 1 13.8,-4.14c7.57,0 14.07,2.94 14.07,13.6l0,18.75c0,4.41 1.8,5.7 5.14,4.32l0.36,2.76zm-9.74,-8.09l0,-7.73a28.65,28.65 0 0 0 -10.37,-1.84c-7.22,0 -12.17,2.48 -12.17,7.72s4.41,7.35 9.28,7.35a19.11,19.11 0 0 0 13.26,-5.5zm-8.75,-36.86l-3.7,0l10.55,-12.49l4.78,0l-11.63,12.49z"/>
   <path fill="#000000" stroke="#5b5555" id="svg_38" d="m1866.08,481.23l0,3.77l-30,0l0,-1.93l23.62,-33l-22.45,0l0,-3.77l28.75,0l0,1.84l-23.63,33.08l23.71,0.01z"/>
   <path fill="#000000" stroke="#5b5555" id="svg_39" d="m1872.3,476.45l3.61,-1.47c1.08,3.22 3.7,7.35 11.63,7.35c6.41,0 10.37,-2.84 10.37,-7.26c0,-10.2 -23.35,-6 -23.35,-19.11c0,-6.71 6.13,-10.57 13.52,-10.57c7,0 12.9,3.22 13.53,10.57l-3.43,0.92c-0.72,-6.25 -6,-8 -10.19,-8c-5.5,0 -9.37,2.67 -9.37,6.71c0,9.38 23.44,5.7 23.44,19.12c0,7.81 -7.12,11.21 -14.88,11.21c-8.92,0 -13.43,-4.41 -14.88,-9.47z"/>
   <path fill="#000000" stroke="#5b5555" id="svg_40" d="m864.19,364.62c-14.59,0 -28.51,-6.79 -35.29,-13.23a11.49,11.49 0 0 0 -3.06,7.12c0,4.08 -0.34,6.11 -4.41,6.11c-4.41,0 -4.75,-2.37 -4.75,-5.77l0,-38.69c0,-3.39 0.68,-6.11 4.41,-6.11c4.41,0 4.75,3.4 4.75,6.11c0,21 22.06,33.94 36.66,33.94c15.94,0 30.88,-5.43 30.88,-24.09c0,-11.88 -8.82,-19 -27.15,-24.44l-10.18,-3.39c-17.65,-5.43 -38.69,-17 -38.69,-41.41c0,-27.15 23.08,-40.38 46.49,-40.38a47.29,47.29 0 0 1 28.85,10.52a4.88,4.88 0 0 0 2.38,-4.42c0,-3.05 0.67,-6.1 4.75,-6.1c4.41,0 4.75,2.71 4.75,5.76l0,33.6c0,2.72 -1,5.77 -4.41,5.77c-4.42,0 -5.09,-3 -5.09,-5.77c0,-11.2 -8.49,-28.84 -31.23,-28.84c-14.59,0 -28.85,6.78 -28.85,22.74c0,11.2 9.51,19 21,22.06l12.55,3.39c26.48,7.13 43.1,21 43.1,44.46c0.05,27.83 -23.02,41.06 -47.46,41.06z"/>
   <path fill="#000000" stroke="#5b5555" id="svg_41" d="m1050.85,268.92a5.07,5.07 0 0 1 -5.43,-5.09c0,-24.44 -5.43,-30.55 -25.11,-30.55l-14.6,0l0,118.11c16.29,0 18.33,-0.34 21.72,-0.34c2.72,0 5.09,2.37 5.09,6.1s-2.37,5.78 -5.09,5.78c-3.39,0 -5.43,-1.7 -32.92,-1.7l-1.36,0c-27.82,0 -29.86,1.7 -33.26,1.7c-2.37,0 -5.08,-2 -5.08,-5.78s2.71,-6.1 5.08,-6.1c3.4,0 5.44,0.34 21.72,0.34l0,-118.11l-14.61,0c-19.68,0 -24.77,6.11 -24.77,30.55a5.08,5.08 0 0 1 -5.43,5.09a4.79,4.79 0 0 1 -5.09,-5.09c0,-3.4 1.36,-12.9 1.36,-26.81l0,-9.17c0,-3.73 2.37,-6.11 5.08,-6.11c3.06,0 13.58,1.7 19,1.7l73.31,0c5.09,0 15.61,-1.7 18.66,-1.7c2.72,0 5.09,2.38 5.09,6.11l0,9.15c0,13.91 1.7,23.41 1.7,26.81a5,5 0 0 1 -5.06,5.11z"/>
   <path fill="#000000" stroke="#5b5555" id="svg_42" d="m1157.25,352.4c20.71,0 33.6,-11.87 33.6,-31.22l0,-87.56c-14.25,0 -15.61,0.34 -19,0.34c-2.38,0 -5.09,-2 -5.09,-5.77s2.71,-6.11 5.09,-6.11c3.39,0 5.09,1.7 24.77,1.7l0.34,0c20,0 21.38,-1.7 24.78,-1.7c2.37,0 5.08,2.38 5.08,6.11s-2.71,5.77 -5.08,5.77c-3.4,0 -5.1,-0.34 -19,-0.34l0,87.56c0,29.53 -23.42,43.44 -51.59,43.44c-27.49,0 -51.24,-13.91 -51.24,-43.44l0,-87.56c-16.63,0 -18.33,0.34 -21.72,0.34c-2.72,0 -5.09,-2 -5.09,-5.77s2.37,-6.11 5.09,-6.11c3.39,0 5.09,1.7 32.92,1.7l1.35,0c27.83,0 29.87,-1.7 33.26,-1.7c2.38,0 5.09,2.38 5.09,6.11s-2.71,5.77 -5.09,5.77c-3.39,0 -5.43,-0.34 -21.72,-0.34l0,91.63c0,19.35 15.61,27.15 33.25,27.15z"/>
   <path fill="#000000" stroke="#5b5555" id="svg_43" d="m1384.06,292.67c0,40.05 -29.18,69.92 -61.09,69.92c-9.5,0 -36.31,-1.7 -41.74,-1.36c-27.49,0 -29.52,1.7 -32.92,1.7c-2.71,0 -5.09,-2 -5.09,-5.78s2.38,-6.1 5.09,-6.1c3.4,0 5.43,0.34 21.72,0.34l0,-117.77c-16.29,0 -18.32,0.34 -21.72,0.34c-2.71,0 -5.09,-2 -5.09,-5.77s2.38,-6.11 5.09,-6.11c3.4,0 5.43,1.7 32.92,1.7c10.18,-0.34 32.24,-1 41.74,-1c31.91,-0.02 61.09,29.51 61.09,69.89zm-25.45,0c0,-45.13 -12.9,-59.39 -38,-59.39c-14.25,0 -26.47,0.34 -26.47,0.34l0,117.77s10.86,0.68 26.47,0.68c25.1,0 38,-14.6 38,-59.4z"/>
   <path fill="#000000" stroke="#5b5555" id="svg_44" d="m1473.71,351.05c2.72,0 5.09,2.37 5.09,6.1s-2.37,5.78 -5.09,5.78c-3.39,0 -5.43,-1.7 -32.92,-1.7l-1.7,0c-27.48,0 -29.52,1.7 -32.92,1.7c-2.71,0 -5.08,-2 -5.08,-5.78s2.37,-6.1 5.08,-6.1c3.4,0 5.44,0.34 21.72,0.34l0,-117.77c-16.28,0 -18.32,0.34 -21.72,0.34c-2.71,0 -5.08,-2 -5.08,-5.77s2.37,-6.11 5.08,-6.11c3.4,0 5.44,1.7 32.92,1.7l1.7,0c27.49,0 29.53,-1.7 32.92,-1.7c2.72,0 5.09,2.38 5.09,6.11s-2.37,5.77 -5.09,5.77c-3.39,0 -5.43,-0.34 -21.72,-0.34l0,117.77c16.29,0 18.33,-0.34 21.72,-0.34z"/>
   <path fill="#000000" stroke="#5b5555" id="svg_45" d="m1561.05,364.62c-35.3,0 -65.16,-28.85 -65.16,-71.95s29.86,-72.28 65.16,-72.28c35.63,0 65.16,29.18 65.16,72.28s-29.53,71.95 -65.16,71.95zm0,-133c-24.78,0 -38,14.93 -38,61.08s13.23,61.09 38,61.09s38,-14.93 38,-61.09s-13.23,-61.11 -38,-61.11l0,0.03z"/>
   <path fill="#000000" stroke="#5b5555" id="svg_46" d="m1786.86,351.05c2.37,0 5.09,2.37 5.09,6.1s-2.72,5.78 -5.09,5.78c-3.4,0 -5.43,-1.7 -33.26,-1.7l-1.36,0c-27.49,0 -29.52,1.7 -32.92,1.7c-2.72,0 -5.09,-2 -5.09,-5.78s2.37,-6.1 5.09,-6.1c3.4,0 5.43,0.34 21.72,0.34l0,-117.77c-16.29,0 -22.74,1 -26.13,1c-2.38,0 -5.09,-2.38 -5.09,-6.11c0,-3.39 2.71,-5.77 5.09,-5.77c3.39,0 9.84,0.68 26.13,0.68c5.43,0 16,-1.7 19,-1.7c2.37,0 5.09,2.38 5.09,6.11l0,123.56c16.3,0 18.33,-0.34 21.73,-0.34z"/>
   <path fill="#000000" stroke="#5b5555" id="svg_47" d="m1817,245.16s-4.08,11.88 -4.08,23.76c0,2.37 -2,5.09 -5.77,5.09a5.08,5.08 0 0 1 -5.43,-5.09c0,-4.41 4.75,-19.35 4.75,-35.3l0,-6.45c0,-3.73 2.38,-5.77 5.09,-5.77c3.74,0 10.52,1.36 19,1.36l63.46,0.68l1.36,-2.38c4.75,-7.12 13.24,-0.67 9.16,5.43l-43.1,63.13c-19,27.83 -25.79,36.65 -25.79,47.51c0,9.16 5.09,14.26 10.86,15.95c-3.39,-10.18 5.43,-17.65 12.9,-17.65a14,14 0 0 1 13.91,13.92c0,9.84 -9.84,15.95 -19,15.95c-12.22,0 -29.19,-7.13 -29.19,-28.17c0,-14.93 8.14,-25.11 26.47,-51.92l27.49,-40l-62.09,-0.05z"/>
   <circle fill="#000000" stroke="#5b5555" id="svg_48" r="12.05" cy="362.04" cx="693.02"/>
  </g>
 </g>
</svg>