<svg viewBox="0 0 1920 709" xmlns="http://www.w3.org/2000/svg"><g fill="#fff"><path d="m557.57 178.86c-4.76-8.25-11.25-12.37-18.7-11.77-11.92.88-18 5.44-24.53 10.27-7.92 5.9-16.12 12-37.13 13.24-27.32 1.62-42.89-6.22-56.63-13.13l-2.34-1.15c5.69-6.19 9.24-13 9.75-20 1.1-15.18-3-27-11.65-33.4-7.47-5.52-17.65-6.19-28.66-1.89-10.16 4-28.83 2.91-35.66-3.48a14.57 14.57 0 0 0 -11.2-11.69c-8.12-1.9-16.64 3.31-17 3.54l-2.35 1.45 1.54 2.3c.23.33 5.58 8.18 12.6 10.28a13.54 13.54 0 0 0 3.87.52 28.18 28.18 0 0 0 9.51-2c8.86 7.42 29 8.55 40.62 4 9.25-3.61 17.62-3.19 23.57 1.21 7.09 5.23 10.47 15.44 9.5 28.74-1.53 21.12-37.47 41.44-72.41 41.21-10.61-.09-18-4.69-25.92-9.55-11.67-7.21-23.74-14.67-45.41-4.9-14.48 8-13.8 23.82-13.19 37.77.54 12.48 1 23.27-7.72 28.26-80.12 45.83-204.42 23-223.48 3.4-8.69-8.92-5-22.46 1.59-47l.18-.65c10.84-40.22 0-93.37-.49-95.6-.57-2.84-1.37-10.84 1.72-14.21 1.18-1.27 2.93-1.75 5.35-1.45 1.78.22 4.44 1.91 7.81 4 18.84 12 63 40.09 216.09-.34 11.6-3.06 15.35 3.25 19.32 9.93 2.74 4.61 5.57 9.37 11.07 9.73 11.54.84 14.77-12.68 18.21-26.89 4.47-18.44 9.54-39.33 31.36-40.26 25.65-1.08 56.75 6.79 59.91 32.53 1.29 10.55-.43 18-5.11 22.15s-11.86 4.16-15.62 3.73c-1-4.45-4-15-10.5-20.17-9.29-7.48-25-7.44-25.64-7.4h-2.76l.13 2.76c0 .69.93 17.1 10.94 26.21a22.92 22.92 0 0 0 15.71 6.23 23.53 23.53 0 0 0 10.59-2.39c4.37.63 13.82 1.11 20.65-4.91 6.09-5.37 8.41-14.38 6.89-26.79-3.59-29.3-37.47-38.4-65.41-37.21-25.83 1.09-31.64 25.06-36.31 44.32-3.5 14.43-6 23.29-12.7 22.82-2.56-.16-4.27-2.82-6.83-7.13-4.13-6.94-9.79-16.44-25.26-12.35-150.87 39.83-193.63 12.62-211.88 1-4.08-2.6-7-4.48-10-4.85-5.23-.65-8.27 1.35-9.92 3.13-5.47 5.92-3.28 17.57-3 18.88.11.54 11.07 54.15.56 93.14l-.17.65c-7.14 26.47-11.07 41.06-.28 52.14 12.62 13 58.37 24.62 110 24.62 40.86 0 85.38-7.32 120-27.11 11.54-6.6 11-20.08 10.39-33.11-.59-13.61-1.14-26.46 10.26-32.79 11-5 19-4.94 26-2.66.6 8.17 3.65 29.8 19.08 46.77l3.94-3.58c-12.72-14-16.38-31.91-17.42-40.86 2.9 1.45 5.73 3.2 8.66 5 8.14 5 16.56 10.24 28.66 10.34h.88c24.43 0 48.56-9.25 63.11-22.22 1.31.65 2.62 1.29 4 2 13.64 6.84 30.57 15.39 59.34 13.68 22.61-1.32 31.85-8.21 40-14.28 6.1-4.55 11.37-8.47 21.74-9.24 5.39-.38 10 2.68 13.7 9.13 11 19.12 9.61 58.39 2.6 68.65-14.88 21.76-90.24 35.34-155 11l-1.87 5c24.66 9.28 51.57 13.32 76.37 13.32 39.74 0 74.05-10.38 84.92-26.28 8.7-13.01 8.97-54.37-2.54-74.36zm-220.44-60.52c-3.13-.94-6-3.72-7.81-5.77 2.59-1.11 6.64-2.39 10.28-1.53a9.17 9.17 0 0 1 6.87 6.19c-2.61.92-6.59 1.92-9.34 1.11zm24.56-13c-6.1-5.55-8.19-14.9-8.88-19.62 4.63.33 13.64 1.56 19.29 6.1 5.08 4.09 7.67 13.06 8.61 17a17.66 17.66 0 0 1 -19.02-3.52z"/><path d="m403.13 155.24c7.87-5.6 11.13-19.23 11.27-19.81l.42-1.79-1.53-1a21.44 21.44 0 0 0 -25.05 1.64c-9.7 7.81-11.42 22.81-11.48 23.44l-.3 2.75 2.76.19c.14 0 1.07.07 2.51.07 4.63-.03 14.59-.65 21.4-5.49zm-11.55-16.85a15.89 15.89 0 0 1 10.15-3.77 17 17 0 0 1 7 1.55c-1.29 4.24-4.25 11.61-8.64 14.73-5.21 3.71-13.21 4.39-17.5 4.46.88-4.3 3.28-12.36 8.99-16.97z"/><path d="m344.37 512.21c7.87-5.6 11.13-19.23 11.26-19.81l.42-1.79-1.53-1a21.45 21.45 0 0 0 -25 1.63c-9.74 7.76-11.46 22.76-11.52 23.42l-.3 2.74 2.76.2c.14 0 1.07.07 2.52.07 4.62 0 14.59-.62 21.39-5.46zm-11.56-16.85a15.83 15.83 0 0 1 10.19-3.77 17.12 17.12 0 0 1 7 1.54c-1.1 3.63-3.92 11.39-8.63 14.74-5.2 3.71-13.21 4.39-17.5 4.46.83-4.33 3.24-12.33 8.94-16.97z"/><path d="m595.11 542.45c-1.11-7.47-5.7-32.22-18.28-37.22-18.12-7.2-42.56-1.86-62.2 2.44-5.79 1.26-11.26 2.46-16 3.22-34.82 5.57-66.18-2.46-93.22-23.87a25.49 25.49 0 0 0 -1.73-6.72c-1.69-3.77-3.53-7.27-7.24-8.63-4.64-1.69-10.79.06-26.29 7.5-10.82 5.19-21.59-.57-30.87-6.53a14.91 14.91 0 0 0 -12-7.36c-8.59-.68-16.52 6.12-16.85 6.41l-2.09 1.81 1.88 2c.29.3 7.07 7.49 14.61 8.49a12.17 12.17 0 0 0 1.6.1c6.16 0 12.68-4.24 13.47-4.77 8.06 4.88 20.17 10.59 32.55 4.66 11.25-5.39 18.88-8.49 22.16-7.3 1.41.52 2.52 2 4.22 5.82 2 4.53 3.46 19.52-2.48 33.63-4.21 10-11 16.77-20.19 20.13-14.72 5.38-25.53 3.52-38 1.36-5.19-.89-10.51-1.8-16.31-2.22a86 86 0 0 0 -9.45-.19 38 38 0 0 0 -20.4 6.49c-19.66 13.56-10.65 31.33-3.4 45.61 7.42 14.62 11.39 23.92 0 30.77-79.52 47.63-191.78 65.5-209 53.37-11-7.74-16.89-46.27-18.61-76.91-.99-17.54-8.42-36.54-14.99-53.36-10.19-26-15.85-42.12-4.24-47.21 5.5-2.41 15.13-.19 28.45 2.88 38 8.77 101.68 23.44 197.67-33.81a6 6 0 0 1 5.36-.39 5.4 5.4 0 0 1 3.18 3.83c.91 3.67 3.25 5.88 6.43 6.06 6 .34 13.36-6.9 17-16.85s4.61-18.46 5.37-25.31c1.76-15.8 2.56-23 32.87-26.89 31.38-4 61.4 4.87 65.32 14.92 4.06 10.41 4.29 19.34.68 26.55-5.38 10.75-17.69 14.28-18 14.38-.08 0-7.82 2.79-15.55.9a22.22 22.22 0 0 0 -13.07-19.77c-11.73-5.5-26.53-.24-27.15 0l-2.6.94 1 2.56c.23.59 5.94 14.45 16 19.9 3.75 2 8.49 2.64 12.74 2.64a53.29 53.29 0 0 0 10.91-1.17l.29-.06a29.49 29.49 0 0 0 7.66 1 36.63 36.63 0 0 0 11.39-1.83c.6-.17 14.66-4.14 21.13-17 4.34-8.63 4.19-19-.45-30.92-5.82-14.92-42.27-22-71-18.27-32.93 4.22-35.49 13.73-37.48 31.58-.76 6.9-1.63 14.72-5.08 24.06-3.13 8.51-8.86 13.47-11.73 13.38-.3 0-1.08-.06-1.56-2a10.73 10.73 0 0 0 -6.29-7.47 11.34 11.34 0 0 0 -10.14.73c-94.15 56.14-156.5 41.78-193.75 33.2-14.32-3.3-24.68-5.69-31.78-2.57-16.89 7.39-8.4 29 1.42 54 6.44 16.4 13.73 35 14.68 51.71.9 16.18 5.1 69.85 20.84 81 4 2.85 12.55 4.29 24.26 4.29 42.18 0 125.8-18.68 190.51-57.45 16.26-9.74 8.71-24.61 2.05-37.74-7.29-14.35-14.17-27.9 1.67-38.82a32.82 32.82 0 0 1 17.46-5.57 84.24 84.24 0 0 1 8.63.17c11.55 1.81 17.51 8.58 17.7 20.15v8.48c-.28 22-.74 58.89 19.55 77.06 7.77 7 17.87 10.45 30.11 10.45a74.45 74.45 0 0 0 8.89-.56c36.89-4.55 44.79-24.3 51.14-40.18 5.35-13.37 9.24-23 28.33-21.15 64 6.29 99.28 4.84 111.09-4.56 8.84-7.13 9.98-29.23 7.2-48zm-269.65-63.71c-3.48-.47-7-2.95-9.19-4.79 2.67-1.7 6.81-3.62 10.56-3.36a9.64 9.64 0 0 1 8.23 5.41c-2.55 1.39-6.62 3.13-9.6 2.74zm21.79-19.57c-5.95-3.23-10.29-10.56-12.31-14.53 4.43-1.12 13.27-2.63 20.27.65a16.72 16.72 0 0 1 10 15.23c-4.57.75-12.96 1.38-17.96-1.35zm237.33 127c-10.36 8.25-46.43 9.4-107.25 3.42-23.09-2.29-28.28 10.72-33.79 24.47-6.13 15.34-13.08 32.71-46.85 36.88-14.72 1.82-26.42-1.07-34.8-8.57-18.49-16.57-18-51.91-17.78-73 0-3.27.08-6.19 0-8.64-.12-7.51-2.31-13.48-6.39-17.79 12.49 2.16 24.38 4.08 40.2-1.71 10.48-3.83 18.52-11.8 23.26-23a62.61 62.61 0 0 0 4.64-24.14c27.39 20.2 58.85 27.66 93.59 22.09 4.91-.78 10.45-2 16.32-3.27 18.93-4.14 42.49-9.29 59.1-2.69 6.5 2.58 12.38 15.56 15 33 2.95 19.78.68 38.26-5.25 42.99z"/><path d="m382 373.84-1.54-.84c-1-.52-9.58-5.05-16.29-3.34-7.7 2-13.73 10.56-14 10.93l-1.49 2.15 2.13 1.53c.34.24 7.53 5.3 15.33 5.3a16.46 16.46 0 0 0 3-.28 15.26 15.26 0 0 0 11.71-9.93 10.77 10.77 0 0 1 4.61 5.65c2.71 7.59-2.61 17.58-2.66 17.68l4.67 2.54c.27-.49 6.5-12.14 3-22a16.54 16.54 0 0 0 -8.47-9.39zm-13.82 10.16c-4.33.8-9.08-1.18-11.87-2.67 2-2.29 5.43-5.63 9.13-6.57 3.17-.82 7.84.76 10.68 2a10 10 0 0 1 -7.94 7.24z"/><path d="m555.62 349.73c-3.57-4.07-8.12-5.62-13.16-4.5-28.86 6.41-46.16 7-57.86 2-2.21-.95-5.19-2.42-8.65-4.12-19.26-9.48-54.64-26.89-87-20.78a42 42 0 0 0 -1-5.27l-.35-1.35c-1.52-6.13-3.41-13.75-20.46-16.05-8.42-1.13-15.08.73-20.43 2.24-5.78 1.62-9.11 2.37-12.16.26a15.09 15.09 0 0 0 -7.45-13.76c-7.39-4.47-17.49-2.05-17.92-1.95l-2.68.66.76 2.66c.11.4 2.89 9.88 9.15 14.2 3.49 2.4 8.44 2.88 11.83 2.88 1.72 0 3-.12 3.51-.17 5.17 3.43 10.64 2 16.4.34 5.14-1.44 11-3.08 18.28-2.09 13.46 1.82 14.64 6.57 16 12.06l.36 1.44c.63 2.38 3.46 14.83-3 25.56-4 6.68-10.94 11.17-20.48 13.34-12.49 2.84-19.36 2.09-26.62 1.29-9.31-1-19.85-2.17-43.22 3.85a68.34 68.34 0 0 0 -10.25 3.83l-.34.13c-12.63 6.12-16.75 14.49-17.39 23.22a84.51 84.51 0 0 0 -11.91-15.77 96.72 96.72 0 0 0 -8.55-8l.1-.11c-.79-.69-19.07-17.29-8.38-38.07 8.11-15.79 21.75-16.4 27.66-15.82.22 3.55 1.26 13 6.14 18.16 6.75 7.09 19.71 8.38 20.26 8.43l2.61.25.28-2.61c.07-.58 1.46-14.32-5.67-22.83a18.85 18.85 0 0 0 -19.51-6.14c-1.14-.26-24.44-5.35-36.51 18.13-6.46 12.56-3.83 23.88.3 32-16.48-8.87-29.32-7.14-32.57-6.47-5.34-1.71-15.93-2.11-23 7.29-7.35 9.75-5 24.8-4.93 25.43l.41 2.6 2.6-.38c.6-.09 14.8-2.26 21.81-10.42 4.76-5.55 5.57-15.15 5.69-19.54 6.09-.74 25.72-1 47.43 21.79a73.43 73.43 0 0 1 17.82 30.32c.06.31.13.62.2.92 3.15 14.7 4.46 24-7.6 30.31-6.59 3.43-13.18 6.52-19.75 9.37-24.57 9.36-56 12.91-74.87 8.44-11.82-2.79-16.35-12.69-17.77-16.91l1-.36c1-.35 9.88-3.66 13-9.65 3.58-6.87 1.25-16.82 1.15-17.24l-.61-2.55-2.56.58c-.45.1-11 2.56-15.57 10.07l-.17.32a18.78 18.78 0 0 0 -2.91-4.58c-7.27-8.18-21.75-10.13-22.37-10.21l-2.6-.33-.37 2.6c-.09.65-2.18 16 5.47 25.77a20.44 20.44 0 0 0 16.58 8.1 23 23 0 0 0 5-.57c1.85 5.32 7.4 16.81 21.49 20.14a89.58 89.58 0 0 0 20.27 2c4.16 0 8.53-.23 13-.63-61.36 16.64-114.46 11.29-133.93 4-11.86-4.43-21.77-16-25.24-29.54-4.68-18.21-2.13-33 7.59-44.05a.6.6 0 0 1 .08-.08 22.46 22.46 0 0 0 18.48 14.53 23.46 23.46 0 0 0 2.89.17c12.26 0 23.54-9 24-9.45l2-1.66-1.62-2.06c-.42-.52-10.29-12.88-21.91-15.07a18.47 18.47 0 0 0 -3.08-.27l.86-.36c16.11-6.05 35.61-7 52.28-5.15.49 4.45 2.12 13.75 7.23 18.81 7.65 7.57 22 8.57 22.59 8.61l2.62.16.2-2.61c.05-.64 1.14-15.83-7-24.95s-19-7.44-24-5.19a137.61 137.61 0 0 0 -37.62.63c7.73-6.29 14.57-15.42 12.28-27.31-2.54-13.24-10.42-18.73-24.12-16.8-12.51 1.76-17.4-.59-23.2-5.63-1.88-1.89-5.92-5.5-10.28-6.65-1.39-11.82 5.4-16.2 5.68-16.37l.32-.22c2.07-1.67 9.34.81 17.77 3.69 29.92 10.22 92.21 31.5 198.3-17.9 7.48-3.48 11-.22 16 4.28 4.16 3.79 8.84 8.18 16.44 7.81 11.72-.42 13-12.73 14.44-25.75 1.94-18 3.94-36.7 29-36.71h.05c34.11 0 57.05 8.54 62.95 23.43 3.54 8.93 3.62 15.67.23 20-5.13 6.59-16.94 6.78-22.17 6.51l-.08-.13c-.33-.59-8.18-14.39-18.47-18-11.7-4.09-27.07 1.47-27.72 1.7l-2.59 1 1.05 2.55c.27.67 6.88 16.44 19.87 21.88a24.94 24.94 0 0 0 9.65 2 24.45 24.45 0 0 0 15.6-5.79c3.48.37 21.19 1.68 29-8.37 4.64-6 4.82-14.45.53-25.27-9.23-23.3-46.48-26.79-67.9-26.79h-.05c-29.81 0-32.38 24-34.26 41.46-1.38 12.86-2.57 20.76-9.34 21-5.39.16-8.93-3-12.67-6.43-5.23-4.76-11.15-10.14-21.81-5.17-104.15 48.5-165.07 27.69-194.34 17.68-11.41-3.9-18.33-6.27-22.7-2.9-1.39.9-9.54 6.82-8.17 20.76-6.22 1.24-11.79 6.39-12.06 6.64l-1.68 1.57 1.31 1.9c.27.38 6.65 9.45 14.94 10.37a14.14 14.14 0 0 0 1.56.09c5.75 0 9.6-3.66 11.68-7 5.95 4.2 12.14 5.73 23.85 4.08 10.89-1.54 16.15 2.1 18.15 12.54 3.82 19.83-26.34 31.48-26.65 31.59-8.73 3.47-16.54 8.38-22.48 15.12-11 12.43-13.9 28.88-8.76 48.9 3.89 15.14 15.1 28.17 28.54 33.2 10.34 3.86 29.89 7.21 55 7.21a320.5 320.5 0 0 0 126-26.44q9.9-4.31 19.83-9.46c9.3-4.84 12.24-11.73 12.55-19.16.05-.58.57-8.26-2.7-19.08-2.92-13.85-4.62-26 12.32-34.23.1 0 10.3-4 19.62.55 6.09 2.94 10.53 8.88 13.19 17.66 0 .13 3.95 12.77 6 15.83l4.45-2.93c-.95-1.65-3.95-10.28-5.23-14.46-3.11-10.26-8.48-17.3-16-20.91a25.47 25.47 0 0 0 -3.74-1.45c16.71-3.55 25-2.65 33.08-1.77 7.72.85 15 1.65 28.38-1.39 11-2.5 19-7.81 23.85-15.78a36.89 36.89 0 0 0 4.94-19c10.92-2.18 22.33-1.48 33.36.8 1.45.69 9.25 4.69 11.16 11.64 1 3.75.15 7.88-2.6 12.31a15.23 15.23 0 0 0 -15 5.95c-5.22 6.86-4 17-4 17.45l.35 2.81 2.78-.53c.41-.07 10-1.94 14.95-7.7 3.51-4.09 4.24-10.8 4.38-13.71 4.33-6.25 5.76-12.31 4.19-18a19.38 19.38 0 0 0 -3.63-6.92c15.14 4.67 28.77 11.37 38.32 16.07 3.52 1.73 6.57 3.23 8.9 4.23 13 5.58 30.68 5.09 61.11-1.67 3.16-.7 5.71.19 8 2.81 12.51 14.27 9.79 69.72 4.36 84.6-1.69 4.62-9 16.32-39.29 17.84 5.48-6.43 14.11-18.79 14.22-33.09a34.73 34.73 0 0 0 -6.26-20c3.61-1.91 10.39-6.09 13.13-11.78 4.23-8.78 1.47-21.14 1.35-21.66l-.63-2.76-2.72.8c-.53.16-13.18 4-18.56 13.68a19.46 19.46 0 0 0 -2.56 10.87c-12.45-10.71-25.72-16-39.67-15.52-18.19.54-32.37 10.55-38.91 16.14l-.28-.13c-1-.43-10-4.22-16.51-1.94-7.51 2.61-12.78 11.7-13 12.08l-1.3 2.28 2.26 1.33c.34.2 6.93 4 14.1 4a17.07 17.07 0 0 0 4.63-.6 15 15 0 0 0 8.82-6.42 21.89 21.89 0 0 0 7.27 16.67c8.43 7.84 21.78 8.35 25.1 8.35h.74l2.76-.1-.2-2.75c0-.64-1.22-15.58-9.1-23.84-4.68-4.91-12.83-7.11-17.81-8 6.93-5.06 18.15-11.35 31.6-11.75 13.66-.43 26.82 5.32 39.15 17 7.55 7.17 11.34 15.23 11.29 24-.11 16.2-13.27 30.3-16.29 33.32a231.3 231.3 0 0 1 -38.19-3.86c-22.44-3.91-33.39-8.22-42.18-11.68-6.2-2.44-11.55-4.55-19.07-5.8l-.87 5.25c7 1.16 11.83 3.07 18 5.5 9 3.55 20.24 8 43.22 12a234.51 234.51 0 0 0 39.83 3.9c38.22 0 48.38-14.13 51.06-21.48 5.28-14.52 9.46-73.04-5.37-89.96zm-236.19-50.16c-2.89-2-4.89-5.79-6-8.43 2.95-.28 7.5-.28 10.94 1.79a9.67 9.67 0 0 1 4.87 8.56c-2.91.09-7.32-.2-9.81-1.92zm-39.43 17.14c4 4.76 4.58 12.08 4.58 16.06-3.76-.71-10.4-2.47-14.12-6.38-3.14-3.3-4.32-10.1-4.64-14a13.42 13.42 0 0 1 14.18 4.32zm-91.38 55.12c-4.07 4.74-11.71 7.1-15.8 8.07-.27-4.35-.13-12.88 4.2-18.62a14.69 14.69 0 0 1 12.17-6.14 17.83 17.83 0 0 1 3.85.42c-.16 4.44-1.04 12.3-4.47 16.27zm-67.22 59.31c-4.52-5.78-4.81-14.54-4.61-19 4.17.9 12.06 3.16 16.31 7.95 3.57 4 4.62 12.1 4.81 16.57a15.55 15.55 0 0 1 -16.51-5.52zm23.31-7.54c2.18-3.59 6.61-5.72 9.48-6.79.36 2.92.53 7.48-1.16 10.72-1.45 2.77-5.53 5.11-8.26 6.35a9.64 9.64 0 0 1 -.06-10.28zm-7-45.51c4.77 5.35 5.61 13.85 5.7 18.22-4.16-.63-12-2.36-16.4-6.75-3.72-3.68-5.26-11.49-5.73-15.86 3.22-.98 10.57-2.19 16.42 4.39zm210.11-91.63c-8.05-3.37-13.42-12-15.72-16.36 4.64-1.29 14.09-3.31 21.31-.79 6.5 2.27 12.25 10.32 14.54 13.86a18.57 18.57 0 0 1 -20.14 3.29zm-315.37 42.25c-3.74-.42-7.45-3.74-9.63-6.21 2.42-1.81 6.19-4.11 9.44-3.94 2 .08 4.48 1.6 6.61 3.31.69.65 1.37 1.25 2 1.84-1.07 2.06-3.64 5.53-8.42 5zm32.55 56.83c7.06 1.33 13.76 7.68 16.88 11-3.95 2.65-12.49 7.53-20.68 6.51-10.1-1.25-13.59-9.09-14.66-12.64 3.52-1.89 12.11-6.06 18.46-4.87zm361.3-18.54c-2.26 2.63-6.15 4.25-8.86 5.12.07-2.92.63-7.31 3-10.47a9.72 9.72 0 0 1 8-4.08q.46 0 .87 0c-.25 2.88-1.05 7.13-3.01 9.43zm-1.75 37.28c-4.25 1.19-9.16-.4-12.07-1.65 1.94-2.63 5.12-6.13 8.55-7.32 3.09-1.07 7.88.09 10.81 1.09a10 10 0 0 1 -7.29 7.87zm33 .7c4.68 4.91 6.57 13.22 7.27 17.62-4.56-.29-13.42-1.56-19.1-6.84a16.73 16.73 0 0 1 -4.85-17.55c4.54.67 12.71 2.64 16.64 6.79zm64.36-21.54c2.94-5.29 9-8.54 12.58-10.08.48 3.79.84 10.34-1.47 15.13-2 4.06-7.47 7.63-10.91 9.44a13.87 13.87 0 0 1 -.24-14.5z"/><path d="m358.77 340.59c9.93 0 20.87-9.1 21.33-9.49l1.41-1.19-.61-1.73a22.23 22.23 0 0 0 -21.84-14.18c-12.94.47-23.72 11.89-24.17 12.38l-1.88 2 2.09 1.8c.48.42 11.88 10.15 23.29 10.42zm.48-21.31a16.68 16.68 0 0 1 15.84 9c-3.16 2.34-10.49 7.18-16.58 7-6.77-.16-14-4.7-17.59-7.31 3.44-3.04 10.61-8.41 18.33-8.69z"/><path d="m503.9 425.56a18.77 18.77 0 0 0 8.77 1.84 34.19 34.19 0 0 0 6.85-.71l1.84-.41.23-1.87a15.18 15.18 0 0 0 -8.93-15.19c-7.82-3.66-17.48-.32-17.89-.18l-2.67.94 1.1 2.61c.16.41 4.03 9.41 10.7 12.97zm6.51-11.56a9.76 9.76 0 0 1 5.84 7.8c-2.84.35-7.16.47-9.82-1-3.06-1.66-5.47-5.12-6.9-7.59 3.06-.5 7.47-.78 10.88.79z"/><path d="m31.85 386.5 1.64-.62c.66-.26 16.17-6.28 21.11-16.28 5.62-11.39 1.4-27.87 1.19-28.6l-.66-2.54-2.55.63c-.74.19-18.2 4.65-25.38 17.14-7.27 12.65-.94 24.49 3.43 29zm0-27.58c4.53-7.89 14.61-12.16 19.41-13.81.88 4.81 2.13 15-1.4 22.13-3.17 6.41-12.6 11.18-16.51 12.93-2.35-3.17-7.16-11.47-1.53-21.25z"/><path d="m229.5 427.19c6.4 4.64 16.15 5.54 22.78 5.54a64.66 64.66 0 0 0 7.14-.36l1.73-.21.5-1.68c.06-.2 5.6-19.82-11.86-30.87-13.85-8.77-33.84-4-34.69-3.79l-2.55.62.59 2.56c.19.8 4.66 19.7 16.36 28.19zm17.44-23.09c11.43 7.24 10.73 18.77 10 23.14-4.74.33-17.4.64-24.3-4.36-7.69-5.59-12-17.18-13.55-22.42 5.56-.91 18.63-2.19 27.85 3.64z"/><path d="m42.37 403.41-1.64-.63-1.23 1.22a15.25 15.25 0 0 0 -2.19 18.05c4.35 7.63 14.86 10.35 15.31 10.46l2.54.64.68-2.53c.11-.42 2.68-10.31-.72-17.26-2.97-6.04-11.76-9.57-12.75-9.95zm8.86 23.06c-2.84-1.13-7.22-3.37-9.3-7a9.63 9.63 0 0 1 .31-10.27c2.7 1.31 6.72 3.75 8.1 6.56 1.66 3.24 1.32 7.8.89 10.71z"/><path d="m131.64 339.88c-.45 0-10.92.76-16.57 6.35-4.93 4.87-5.49 14.59-5.53 15.68l-.08 1.75 1.58.76a16 16 0 0 0 6.75 1.44 15 15 0 0 0 11.51-5.2c6-6.74 5.2-17.86 5.16-18.33l-.2-2.62zm-6.32 17.24a10 10 0 0 1 -10.32 3.07c.39-3.06 1.44-7.87 3.78-10.18 2.72-2.69 7.37-3.92 10.35-4.44-.13 3.43-1.03 8.43-3.81 11.55z"/><path d="m186.54 317-2.3-1.25-1.24 2.25c-.23.41-5.64 10.17-3 18.8a15.63 15.63 0 0 0 14.72 11.2h.14 1.76l.66-1.62c.42-1 4-10.05 1.61-16.55-2.77-7.53-11.96-12.61-12.35-12.83zm6.46 25.43a10 10 0 0 1 -8-7.13c-1.27-4.22.21-9.16 1.4-12.1 2.67 1.89 6.24 5 7.5 8.4 1.1 3.07.1 7.88-.9 10.83z"/><path d="m865.74 457.25v2.75c-.09 24.08-17.31 25.92-23.54 25.92-17.22 0-27-10.39-27-30.61 0-21.23 10.64-31.89 27.41-31.89 10.83 0 18.67 4.42 20.21 13.61l-4 1.1c-.91-5.06-5.32-10.66-16.42-10.66-14 0-22.63 9.19-22.63 27.57 0 17 7.49 26.93 22.63 26.93 6.14 0 18.49-1.75 19-20.87h-17v-3.85z"/><path d="m905.7 446.31-14.79 38.69c-4.15 10.48-10.37 20.68-18.49 20.68a7.17 7.17 0 0 1 -3.15-.65l.81-3.4a5.71 5.71 0 0 0 2.07.37c6.5 0 11.73-9.74 15.06-18.1l-15.6-37.59h4.6l13.08 32.17 12.17-32.17z"/><path d="m911.66 465.7c0-12.5 7.21-20.31 18.4-20.31s17.85 7.72 17.85 20-7.13 20.5-18.22 20.5-18.03-7.89-18.03-20.19zm31.92-.18c0-10.3-5.23-16.55-13.62-16.55-8.56 0-13.88 6.25-13.88 16.64s5.23 16.72 13.61 16.72 13.89-6.43 13.89-16.81zm-5.86-38.14h4.78l-11.63 12.49h-3.7z"/><path d="m992.55 492.72c0 7.72-6.67 13.42-19.56 13.42-10.74 0-17.23-3.77-17.23-10.85 0-4.41 2.35-8.08 6.58-10.66a5.92 5.92 0 0 1 -2.43-5.14c0-3.31 1.89-5.7 4.33-7.36-4.42-2.39-7-6.71-7-12.31 0-8.92 6.41-14.43 15.78-14.43a16 16 0 0 1 2.08.09h16.59v3.31l-8.29-.28c3.15 2.49 5 6.34 5 11.31 0 8.91-6 14.43-15.42 14.43a22.38 22.38 0 0 1 -6.31-.92c-1.53 1-3.06 2.57-3.06 4.69 0 1.93 1.44 4.31 5.14 4.31h9c10.39 0 14.8 4.23 14.8 10.39zm-3.88.55c0-4.41-3.6-7.35-11.18-7.35h-10.19a13.48 13.48 0 0 1 -2-.18c-4.42 2.75-5.59 6.06-5.59 8.82 0 5.15 4.87 8.18 13.89 8.18 10.11 0 15.07-3.96 15.07-9.47zm-27.14-33.54c0 7.16 4.6 11.3 11.46 11.3s11.27-4.23 11.27-11.12-4.26-11.21-11.37-11.21c-6.76 0-11.36 3.86-11.36 11.03z"/><path d="m1032.69 446.31-14.79 38.69c-4.15 10.48-10.37 20.68-18.49 20.68a7.17 7.17 0 0 1 -3.15-.65l.81-3.4a5.72 5.72 0 0 0 2.08.37c6.49 0 11.72-9.74 15.05-18.1l-15.6-37.59h4.6l13.08 32.17 12.17-32.17z"/><path d="m1064.89 482.88a17.83 17.83 0 0 1 -9.92 3c-6.49 0-10.82-4.23-10.82-14.15v-21.84h-6.85v-3.58h6.85v-11.21l4.33-1.11v12.32h14.79v3.58h-14.79v20.4c0 6.44 1.62 11.77 7.93 11.77a16.28 16.28 0 0 0 7.94-2.48z"/><path d="m1071.12 465.7c0-12.5 7.21-20.31 18.39-20.31s17.86 7.72 17.86 20-7.12 20.5-18.22 20.5-18.03-7.89-18.03-20.19zm31.92-.18c0-10.3-5.23-16.55-13.61-16.55-8.57 0-13.89 6.25-13.89 16.64s5.23 16.72 13.61 16.72 13.85-6.43 13.85-16.81z"/><path d="m1140.56 445.85-.18 4.32-.27.09a9 9 0 0 0 -3.34-.64c-4.69 0-9.1 3.4-12.71 8.08v27.3h-4.33v-38.69h4.27l.09 7.26c3.06-3.86 7.84-8.18 13.44-8.18a8.17 8.17 0 0 1 3.03.46z"/><path d="m1186.56 484.82a7.76 7.76 0 0 1 -4.15 1.1c-3.43 0-5.5-1.75-5.5-7.17v-17.1c0-8.08-2.71-12.31-10-12.31-5.5 0-10 2.67-13.62 6.34v29.32h-4.29v-38.69h4l.36 5.51c3.88-3.77 8.57-6.43 14.88-6.43 9.29 0 13.08 5.24 13.08 14.89v17.46c0 3.86.9 4.78 3 4.78a5.23 5.23 0 0 0 2.07-.46z"/><path d="m1230.39 484.82a8.38 8.38 0 0 1 -4.24 1.1c-2.79 0-5-1.38-5.41-5.42a20.9 20.9 0 0 1 -14.24 5.42c-8.3 0-12.81-4.32-12.81-10.75 0-8.09 7.21-11.4 16-11.4a33 33 0 0 1 10.91 1.84v-6.07c0-6.52-2.7-10.38-10.46-10.38a22.26 22.26 0 0 0 -12.62 3.95l-.54-3.58a24.07 24.07 0 0 1 13.79-4.14c7.58 0 14.07 2.94 14.07 13.6v18.75c0 4.41 1.81 5.7 5.14 4.32zm-9.74-8.09v-7.73a28.61 28.61 0 0 0 -10.37-1.84c-7.21 0-12.17 2.48-12.17 7.72s4.42 7.35 9.29 7.35a19.07 19.07 0 0 0 13.25-5.5z"/><path d="m1289.74 481.6a22.1 22.1 0 0 1 -13.61 4.32c-12.63 0-18.31-9-18.31-20 0-11.95 6.58-20.49 17.49-20.49s15.51 8.64 14 19.76h-27.14c0 10.75 5.5 17.18 14.7 17.18a20.37 20.37 0 0 0 11.9-3.76zm-27.41-19.76h23.17c.54-7.81-3.24-13.23-10.37-13.23s-11.81 5.51-12.8 13.23zm13.7-22h-3.69l10.55-12.49h4.78z"/><path d="m1298.13 476.45 3.61-1.47c1.08 3.22 3.7 7.35 11.63 7.35 6.41 0 10.37-2.84 10.37-7.26 0-10.2-23.35-6-23.35-19.11 0-6.71 6.13-10.57 13.52-10.57 7 0 12.9 3.22 13.53 10.57l-3.43.92c-.72-6.25-6-8-10.19-8-5.5 0-9.38 2.67-9.38 6.71 0 9.38 23.45 5.7 23.45 19.12 0 7.81-7.12 11.21-14.88 11.21-8.93 0-13.43-4.41-14.88-9.47z"/><path d="m1392.56 492.72c0 7.72-6.67 13.42-19.57 13.42-10.73 0-17.22-3.77-17.22-10.85 0-4.41 2.34-8.08 6.58-10.66a5.92 5.92 0 0 1 -2.43-5.14c0-3.31 1.89-5.7 4.32-7.36-4.41-2.39-6.94-6.71-6.94-12.31 0-8.92 6.4-14.43 15.78-14.43a15.93 15.93 0 0 1 2.07.09h16.6v3.31l-8.3-.28c3.16 2.49 5 6.34 5 11.31 0 8.91-6 14.43-15.42 14.43a22.32 22.32 0 0 1 -6.31-.92c-1.53 1-3.07 2.57-3.07 4.69 0 1.93 1.45 4.31 5.14 4.31h9c10.35 0 14.77 4.23 14.77 10.39zm-3.88.55c0-4.41-3.61-7.35-11.18-7.35h-10.19a13.48 13.48 0 0 1 -2-.18c-4.42 2.75-5.59 6.06-5.59 8.82 0 5.15 4.87 8.18 13.88 8.18 10.12 0 15.08-3.96 15.08-9.47zm-27.14-33.54c0 7.16 4.6 11.3 11.45 11.3s11.27-4.23 11.27-11.12-4.26-11.21-11.36-11.21c-6.76 0-11.36 3.86-11.36 11.03z"/><path d="m1432.7 446.31-14.79 38.69c-4.15 10.48-10.37 20.68-18.49 20.68a7.17 7.17 0 0 1 -3.15-.65l.81-3.4a5.71 5.71 0 0 0 2.07.37c6.49 0 11.72-9.74 15.06-18.1l-15.6-37.59h4.6l13.07 32.17 12.18-32.17z"/><path d="m1438.65 465.7c0-12.5 7.22-20.31 18.4-20.31s17.86 7.72 17.86 20-7.13 20.5-18.22 20.5-18.04-7.89-18.04-20.19zm31.93-.18c0-10.3-5.24-16.55-13.62-16.55-8.57 0-13.89 6.25-13.89 16.64s5.23 16.72 13.62 16.72 13.89-6.43 13.89-16.81zm-5.87-38.14h4.78l-11.63 12.49h-3.69z"/><path d="m1519.55 492.72c0 7.72-6.67 13.42-19.57 13.42-10.73 0-17.22-3.77-17.22-10.85 0-4.41 2.34-8.08 6.58-10.66a5.92 5.92 0 0 1 -2.43-5.14c0-3.31 1.89-5.7 4.32-7.36-4.41-2.39-6.94-6.71-6.94-12.31 0-8.92 6.4-14.43 15.78-14.43a15.86 15.86 0 0 1 2.07.09h16.6v3.31l-8.3-.28c3.16 2.49 5 6.34 5 11.31 0 8.91-6 14.43-15.42 14.43a22.32 22.32 0 0 1 -6.31-.92c-1.53 1-3.07 2.57-3.07 4.69 0 1.93 1.45 4.31 5.14 4.31h9c10.35 0 14.77 4.23 14.77 10.39zm-3.88.55c0-4.41-3.6-7.35-11.18-7.35h-10.19a13.48 13.48 0 0 1 -2-.18c-4.42 2.75-5.59 6.06-5.59 8.82 0 5.15 4.87 8.18 13.88 8.18 10.12 0 15.08-3.96 15.08-9.47zm-27.14-33.54c0 7.16 4.6 11.3 11.45 11.3s11.27-4.23 11.27-11.12-4.23-11.21-11.36-11.21c-6.76 0-11.36 3.86-11.36 11.03z"/><path d="m1559.69 446.31-14.79 38.69c-4.15 10.48-10.37 20.68-18.49 20.68a7.17 7.17 0 0 1 -3.15-.65l.81-3.4a5.71 5.71 0 0 0 2.07.37c6.49 0 11.73-9.74 15.06-18.1l-15.6-37.59h4.6l13.07 32.17 12.18-32.17z"/><path d="m1631 484.82a8.28 8.28 0 0 1 -4.23 1.1c-3.43 0-5.5-1.75-5.5-7.17v-17.37c0-8-2.71-12.13-8.21-12.13-5.14 0-10.28 3.49-13.17 6.34.09 1.1.18 2.3.18 3.58v25.83h-4.33v-24.45c0-7.72-2.7-11.3-8.56-11.3-5.23 0-10.28 3.31-13 6.16v29.59h-4.33v-38.69h4l.27 5.14c3.61-3.3 8.66-6.06 14.25-6.06s9.2 2.3 10.73 6.89c3.7-3.49 9.38-6.89 15.15-6.89 7.48 0 11.27 5.15 11.27 14.52v18.2c0 3.58 1.09 4.41 3.07 4.41a4.94 4.94 0 0 0 2.07-.46z"/><path d="m1674.86 484.82a8.38 8.38 0 0 1 -4.24 1.1c-2.79 0-4.95-1.38-5.4-5.42a21 21 0 0 1 -14.25 5.42c-8.3 0-12.81-4.32-12.81-10.75 0-8.09 7.21-11.4 16-11.4a33 33 0 0 1 10.91 1.84v-6.07c0-6.52-2.7-10.38-10.46-10.38a22.26 22.26 0 0 0 -12.62 3.95l-.54-3.58a24.11 24.11 0 0 1 13.8-4.14c7.57 0 14.06 2.94 14.06 13.6v18.75c0 4.41 1.81 5.7 5.14 4.32zm-9.74-8.09v-7.73a28.6 28.6 0 0 0 -10.36-1.84c-7.22 0-12.18 2.48-12.18 7.72s4.42 7.35 9.29 7.35a19.07 19.07 0 0 0 13.25-5.5z"/><path d="m1681.91 476.45 3.6-1.47c1.08 3.22 3.7 7.35 11.64 7.35 6.4 0 10.37-2.84 10.37-7.26 0-10.2-23.36-6-23.36-19.11 0-6.71 6.13-10.57 13.53-10.57 7 0 12.89 3.22 13.52 10.57l-3.42.92c-.73-6.25-6-8-10.2-8-5.5 0-9.37 2.67-9.37 6.71 0 9.38 23.44 5.7 23.44 19.12 0 7.81-7.12 11.21-14.88 11.21-8.92 0-13.43-4.41-14.87-9.47z"/><path d="m1719.61 476.45 3.6-1.47c1.09 3.22 3.7 7.35 11.64 7.35 6.4 0 10.37-2.84 10.37-7.26 0-10.2-23.36-6-23.36-19.11 0-6.71 6.14-10.57 13.53-10.57 7 0 12.89 3.22 13.53 10.57l-3.43.92c-.72-6.25-6-8-10.19-8-5.5 0-9.38 2.67-9.38 6.71 0 9.38 23.45 5.7 23.45 19.12 0 7.81-7.13 11.21-14.88 11.21-8.93 0-13.44-4.41-14.88-9.47z"/><path d="m1786.61 481.23v3.77h-30v-1.93l23.62-33h-22.45v-3.77h28.76v1.84l-23.62 33.08z"/><path d="m1829.91 484.82a8.43 8.43 0 0 1 -4.24 1.1c-2.8 0-5-1.38-5.41-5.42a21 21 0 0 1 -14.25 5.42c-8.3 0-12.81-4.32-12.81-10.75 0-8.09 7.22-11.4 16.06-11.4a33.07 33.07 0 0 1 10.91 1.84v-6.07c0-6.52-2.71-10.38-10.46-10.38a22.3 22.3 0 0 0 -12.63 3.95l-.54-3.58a24.13 24.13 0 0 1 13.8-4.14c7.57 0 14.07 2.94 14.07 13.6v18.75c0 4.41 1.8 5.7 5.14 4.32zm-9.74-8.09v-7.73a28.65 28.65 0 0 0 -10.37-1.84c-7.22 0-12.17 2.48-12.17 7.72s4.41 7.35 9.28 7.35a19.11 19.11 0 0 0 13.26-5.5zm-8.75-36.86h-3.7l10.55-12.49h4.78z"/><path d="m1866.08 481.23v3.77h-30v-1.93l23.62-33h-22.45v-3.77h28.75v1.84l-23.63 33.08z"/><path d="m1872.3 476.45 3.61-1.47c1.08 3.22 3.7 7.35 11.63 7.35 6.41 0 10.37-2.84 10.37-7.26 0-10.2-23.35-6-23.35-19.11 0-6.71 6.13-10.57 13.52-10.57 7 0 12.9 3.22 13.53 10.57l-3.43.92c-.72-6.25-6-8-10.19-8-5.5 0-9.37 2.67-9.37 6.71 0 9.38 23.44 5.7 23.44 19.12 0 7.81-7.12 11.21-14.88 11.21-8.92 0-13.43-4.41-14.88-9.47z"/><path d="m864.19 364.62c-14.59 0-28.51-6.79-35.29-13.23a11.49 11.49 0 0 0 -3.06 7.12c0 4.08-.34 6.11-4.41 6.11-4.41 0-4.75-2.37-4.75-5.77v-38.69c0-3.39.68-6.11 4.41-6.11 4.41 0 4.75 3.4 4.75 6.11 0 21 22.06 33.94 36.66 33.94 15.94 0 30.88-5.43 30.88-24.09 0-11.88-8.82-19-27.15-24.44l-10.18-3.39c-17.65-5.43-38.69-17-38.69-41.41 0-27.15 23.08-40.38 46.49-40.38a47.29 47.29 0 0 1 28.85 10.52 4.88 4.88 0 0 0 2.38-4.42c0-3.05.67-6.1 4.75-6.1 4.41 0 4.75 2.71 4.75 5.76v33.6c0 2.72-1 5.77-4.41 5.77-4.42 0-5.09-3-5.09-5.77 0-11.2-8.49-28.84-31.23-28.84-14.59 0-28.85 6.78-28.85 22.74 0 11.2 9.51 19 21 22.06l12.55 3.39c26.48 7.13 43.1 21 43.1 44.46.05 27.83-23.02 41.06-47.46 41.06z"/><path d="m1050.85 268.92a5.07 5.07 0 0 1 -5.43-5.09c0-24.44-5.43-30.55-25.11-30.55h-14.6v118.11c16.29 0 18.33-.34 21.72-.34 2.72 0 5.09 2.37 5.09 6.1s-2.37 5.78-5.09 5.78c-3.39 0-5.43-1.7-32.92-1.7h-1.36c-27.82 0-29.86 1.7-33.26 1.7-2.37 0-5.08-2-5.08-5.78s2.71-6.1 5.08-6.1c3.4 0 5.44.34 21.72.34v-118.11h-14.61c-19.68 0-24.77 6.11-24.77 30.55a5.08 5.08 0 0 1 -5.43 5.09 4.79 4.79 0 0 1 -5.09-5.09c0-3.4 1.36-12.9 1.36-26.81v-9.17c0-3.73 2.37-6.11 5.08-6.11 3.06 0 13.58 1.7 19 1.7h73.31c5.09 0 15.61-1.7 18.66-1.7 2.72 0 5.09 2.38 5.09 6.11v9.15c0 13.91 1.7 23.41 1.7 26.81a5 5 0 0 1 -5.06 5.11z"/><path d="m1157.25 352.4c20.71 0 33.6-11.87 33.6-31.22v-87.56c-14.25 0-15.61.34-19 .34-2.38 0-5.09-2-5.09-5.77s2.71-6.11 5.09-6.11c3.39 0 5.09 1.7 24.77 1.7h.34c20 0 21.38-1.7 24.78-1.7 2.37 0 5.08 2.38 5.08 6.11s-2.71 5.77-5.08 5.77c-3.4 0-5.1-.34-19-.34v87.56c0 29.53-23.42 43.44-51.59 43.44-27.49 0-51.24-13.91-51.24-43.44v-87.56c-16.63 0-18.33.34-21.72.34-2.72 0-5.09-2-5.09-5.77s2.37-6.11 5.09-6.11c3.39 0 5.09 1.7 32.92 1.7h1.35c27.83 0 29.87-1.7 33.26-1.7 2.38 0 5.09 2.38 5.09 6.11s-2.71 5.77-5.09 5.77c-3.39 0-5.43-.34-21.72-.34v91.63c0 19.35 15.61 27.15 33.25 27.15z"/><path d="m1384.06 292.67c0 40.05-29.18 69.92-61.09 69.92-9.5 0-36.31-1.7-41.74-1.36-27.49 0-29.52 1.7-32.92 1.7-2.71 0-5.09-2-5.09-5.78s2.38-6.1 5.09-6.1c3.4 0 5.43.34 21.72.34v-117.77c-16.29 0-18.32.34-21.72.34-2.71 0-5.09-2-5.09-5.77s2.38-6.11 5.09-6.11c3.4 0 5.43 1.7 32.92 1.7 10.18-.34 32.24-1 41.74-1 31.91-.02 61.09 29.51 61.09 69.89zm-25.45 0c0-45.13-12.9-59.39-38-59.39-14.25 0-26.47.34-26.47.34v117.77s10.86.68 26.47.68c25.1 0 38-14.6 38-59.4z"/><path d="m1473.71 351.05c2.72 0 5.09 2.37 5.09 6.1s-2.37 5.78-5.09 5.78c-3.39 0-5.43-1.7-32.92-1.7h-1.7c-27.48 0-29.52 1.7-32.92 1.7-2.71 0-5.08-2-5.08-5.78s2.37-6.1 5.08-6.1c3.4 0 5.44.34 21.72.34v-117.77c-16.28 0-18.32.34-21.72.34-2.71 0-5.08-2-5.08-5.77s2.37-6.11 5.08-6.11c3.4 0 5.44 1.7 32.92 1.7h1.7c27.49 0 29.53-1.7 32.92-1.7 2.72 0 5.09 2.38 5.09 6.11s-2.37 5.77-5.09 5.77c-3.39 0-5.43-.34-21.72-.34v117.77c16.29 0 18.33-.34 21.72-.34z"/><path d="m1561.05 364.62c-35.3 0-65.16-28.85-65.16-71.95s29.86-72.28 65.16-72.28c35.63 0 65.16 29.18 65.16 72.28s-29.53 71.95-65.16 71.95zm0-133c-24.78 0-38 14.93-38 61.08s13.23 61.09 38 61.09 38-14.93 38-61.09-13.23-61.11-38-61.11z"/><path d="m1786.86 351.05c2.37 0 5.09 2.37 5.09 6.1s-2.72 5.78-5.09 5.78c-3.4 0-5.43-1.7-33.26-1.7h-1.36c-27.49 0-29.52 1.7-32.92 1.7-2.72 0-5.09-2-5.09-5.78s2.37-6.1 5.09-6.1c3.4 0 5.43.34 21.72.34v-117.77c-16.29 0-22.74 1-26.13 1-2.38 0-5.09-2.38-5.09-6.11 0-3.39 2.71-5.77 5.09-5.77 3.39 0 9.84.68 26.13.68 5.43 0 16-1.7 19-1.7 2.37 0 5.09 2.38 5.09 6.11v123.56c16.3 0 18.33-.34 21.73-.34z"/><path d="m1817 245.16s-4.08 11.88-4.08 23.76c0 2.37-2 5.09-5.77 5.09a5.08 5.08 0 0 1 -5.43-5.09c0-4.41 4.75-19.35 4.75-35.3v-6.45c0-3.73 2.38-5.77 5.09-5.77 3.74 0 10.52 1.36 19 1.36l63.46.68 1.36-2.38c4.75-7.12 13.24-.67 9.16 5.43l-43.1 63.13c-19 27.83-25.79 36.65-25.79 47.51 0 9.16 5.09 14.26 10.86 15.95-3.39-10.18 5.43-17.65 12.9-17.65a14 14 0 0 1 13.91 13.92c0 9.84-9.84 15.95-19 15.95-12.22 0-29.19-7.13-29.19-28.17 0-14.93 8.14-25.11 26.47-51.92l27.49-40z"/><circle cx="693.02" cy="362.04" r="12.05"/></g></svg>