<svg viewBox="0 0 1920 543" xmlns="http://www.w3.org/2000/svg"><g fill="#333"><path d="m129.85 421.67v5.77c-.19 50.44-37 54.29-50.24 54.29-36.77 0-57.56-21.76-57.56-64.11 0-44.46 22.71-66.8 58.52-66.8 23.1 0 39.85 9.24 43.12 28.5l-8.47 2.31c-1.93-10.59-11.36-22.34-35-22.34-29.83 0-48.31 19.25-48.31 57.76 0 35.61 16 56.4 48.31 56.4 13.09 0 39.47-3.66 40.62-43.7h-36.23v-8.08z"/><path d="m215.13 398.76-31.57 81c-8.86 21.95-22.14 43.32-39.47 43.32a15.64 15.64 0 0 1 -6.73-1.35l1.73-7.12a12.81 12.81 0 0 0 4.43.77c13.86 0 25-20.41 32.14-37.93l-33.3-78.73h9.82l27.91 67.37 26-67.37z"/><path d="m227.83 439.38c0-26.18 15.4-42.55 39.27-42.55 23.68 0 38.12 16.17 38.12 42 0 26-15.21 42.93-38.89 42.93s-38.5-16.59-38.5-42.38zm68.17-.38c0-21.56-11.17-34.65-29.07-34.65-18.29 0-29.64 13.09-29.64 34.84s11.16 35 29.06 35c18.08.03 29.65-13.44 29.65-35.19zm-12.53-79.9h10.2l-24.83 26.18h-7.9z"/><path d="m400.51 496c0 16.17-14.25 28.11-41.78 28.11-22.9 0-36.76-7.89-36.76-22.72 0-9.24 5-16.94 14-22.33-3.66-2.5-5.2-6.35-5.2-10.78 0-6.93 4-11.93 9.24-15.4-9.43-5-14.82-14.05-14.82-25.79 0-18.68 13.67-30.23 33.69-30.23a32.7 32.7 0 0 1 4.42.2h35.43v6.94l-17.72-.58c6.74 5.2 10.79 13.28 10.79 23.68 0 18.67-12.9 30.22-32.92 30.22a48.22 48.22 0 0 1 -13.48-1.93c-3.27 2.12-6.54 5.4-6.54 9.82 0 4 3.08 9.05 11 9.05h19.25c21.97-.04 31.4 8.82 31.4 21.74zm-8.28 1.16c0-9.24-7.7-15.4-23.87-15.4h-21.75a27.92 27.92 0 0 1 -4.24-.39c-9.43 5.78-11.93 12.71-11.93 18.48 0 10.78 10.39 17.14 29.64 17.14 21.56.01 32.15-8.31 32.15-19.86zm-57.94-70.27c0 15 9.81 23.68 24.44 23.68 14.83 0 24.07-8.85 24.07-23.29 0-14.63-9.05-23.49-24.26-23.49-14.44-.03-24.25 8.06-24.25 23.07z"/><path d="m486.17 398.76-31.57 81c-8.86 21.95-22.14 43.32-39.46 43.32a15.66 15.66 0 0 1 -6.74-1.35l1.73-7.12a12.81 12.81 0 0 0 4.43.77c13.86 0 25-20.41 32.15-37.93l-33.31-78.69h9.82l27.91 67.37 26-67.37z"/><path d="m554.89 475.38a38.76 38.76 0 0 1 -21.17 6.35c-13.86 0-23.1-8.86-23.1-29.65v-45.81h-14.62v-7.51h14.63v-23.49l9.24-2.31v25.8h31.57v7.51h-31.58v42.73c0 13.48 3.46 24.64 16.94 24.64 6.16 0 12.32-2.5 16.94-5.19z"/><path d="m568.18 439.38c0-26.18 15.4-42.55 39.27-42.55 23.67 0 38.11 16.17 38.11 42 0 26-15.21 42.93-38.88 42.93s-38.5-16.59-38.5-42.38zm68.14-.39c0-21.56-11.16-34.65-29.07-34.65-18.28 0-29.64 13.09-29.64 34.84s11.16 35 29.07 35c18.09.04 29.64-13.43 29.64-35.18z"/><path d="m716.4 397.8-.38 9-.58.2a19.54 19.54 0 0 0 -7.12-1.35c-10 0-19.45 7.12-27.15 16.94v57.21h-9.24v-81h9.07l.19 15.21c6.55-8.09 16.75-17.14 28.69-17.14a17.89 17.89 0 0 1 6.52.93z"/><path d="m814.58 479.42a16.67 16.67 0 0 1 -8.86 2.31c-7.31 0-11.74-3.66-11.74-15v-35.8c0-16.94-5.78-25.8-21.37-25.8-11.74 0-21.37 5.58-29.07 13.28v61.39h-9.24v-81h8.47l.77 11.55c8.28-7.89 18.29-13.48 31.77-13.48 19.82 0 27.91 11 27.91 31.19v36.57c0 8.09 1.92 10 6.35 10a11.52 11.52 0 0 0 4.43-1z"/><path d="m908.14 479.42a18.11 18.11 0 0 1 -9 2.31c-6 0-10.59-2.89-11.55-11.36a45.07 45.07 0 0 1 -30.42 11.36c-17.71 0-27.33-9.05-27.33-22.52 0-16.95 15.4-23.88 34.26-23.88a71.85 71.85 0 0 1 23.29 3.85v-12.7c0-13.67-5.77-21.75-22.33-21.75a48.19 48.19 0 0 0 -27 8.27l-1.15-7.5a52.29 52.29 0 0 1 29.45-8.67c16.17 0 30 6.16 30 28.49v39.27c0 9.24 3.85 11.94 11 9.05zm-20.8-16.94v-16.17a62.19 62.19 0 0 0 -22.13-3.85c-15.4 0-26 5.19-26 16.17s9.43 15.4 19.83 15.4c11.56-.03 22.34-5.39 28.3-11.55z"/><path d="m1034.8 472.68c-5 4-15.4 9.05-29.06 9.05-27 0-39.08-18.87-39.08-42 0-25 14.05-42.93 37.34-42.93s33.11 18.1 29.84 41.39h-57.94c0 22.53 11.74 36 31.38 36a44 44 0 0 0 25.41-7.89zm-58.52-41.39h49.48c1.15-16.36-6.93-27.72-22.14-27.72-15.4 0-25.22 11.55-27.34 27.72zm29.26-46h-7.89l22.52-26.18h10.21z"/><path d="m1052.71 461.9 7.7-3.08c2.31 6.74 7.89 15.4 24.83 15.4 13.67 0 22.14-6 22.14-15.21 0-21.37-49.86-12.51-49.86-40 0-14.05 13.09-22.14 28.87-22.14 15 0 27.53 6.74 28.88 22.14l-7.27 1.89c-1.54-13.09-12.7-16.75-21.75-16.75-11.74 0-20 5.58-20 14.05 0 19.64 50 11.94 50 40 0 16.37-15.21 23.49-31.76 23.49-19.08.04-28.7-9.2-31.78-19.79z"/><path d="m1315.86 479.42a17.91 17.91 0 0 1 -9 2.31c-7.31 0-11.74-3.66-11.74-15v-36.4c0-16.75-5.78-25.41-17.52-25.41-11 0-21.94 7.31-28.1 13.28.19 2.31.38 4.81.38 7.51v54.09h-9.24v-51.2c0-16.17-5.78-23.68-18.29-23.68-11.16 0-21.94 6.93-27.72 12.9v62h-9.24v-81h8.47l.58 10.78c7.7-6.93 18.48-12.71 30.41-12.71 12.13 0 19.64 4.82 22.91 14.44 7.9-7.31 20-14.44 32.34-14.44 16 0 24.07 10.78 24.07 30.42v38.12c0 7.5 2.31 9.24 6.54 9.24a10.88 10.88 0 0 0 4.43-1z"/><path d="m1409.42 479.42a18.11 18.11 0 0 1 -9.05 2.31c-6 0-10.59-2.89-11.55-11.36a45.07 45.07 0 0 1 -30.42 11.36c-17.71 0-27.33-9.05-27.33-22.52 0-16.95 15.4-23.88 34.26-23.88a71.91 71.91 0 0 1 23.3 3.85v-12.7c0-13.67-5.78-21.75-22.33-21.75a48.13 48.13 0 0 0 -27 8.27l-1.16-7.5a52.31 52.31 0 0 1 29.45-8.67c16.17 0 30 6.16 30 28.49v39.27c0 9.24 3.85 11.94 11 9.05zm-20.79-16.94v-16.17a62.28 62.28 0 0 0 -22.14-3.85c-15.4 0-26 5.19-26 16.17s9.43 15.4 19.83 15.4c11.56-.03 22.34-5.39 28.31-11.55z"/><path d="m1424.43 461.9 7.7-3.08c2.31 6.74 7.9 15.4 24.84 15.4 13.66 0 22.13-6 22.13-15.21 0-21.37-49.85-12.51-49.85-40 0-14.05 13.09-22.14 28.87-22.14 15 0 27.53 6.74 28.88 22.14l-7.32 1.93c-1.54-13.09-12.7-16.75-21.75-16.75-11.74 0-20 5.58-20 14.05 0 19.64 50 11.94 50 40 0 16.37-15.21 23.49-31.76 23.49-19.03 0-28.66-9.24-31.74-19.83z"/><path d="m1504.9 461.9 7.7-3.08c2.31 6.74 7.89 15.4 24.83 15.4 13.67 0 22.14-6 22.14-15.21 0-21.37-49.86-12.51-49.86-40 0-14.05 13.09-22.14 28.88-22.14 15 0 27.53 6.74 28.87 22.14l-7.31 1.93c-1.54-13.09-12.71-16.75-21.75-16.75-11.75 0-20 5.58-20 14.05 0 19.64 50 11.94 50 40 0 16.37-15.21 23.49-31.77 23.49-19.02 0-28.63-9.24-31.73-19.83z"/><path d="m1647.93 471.91v7.89h-64.1v-4l50.43-69.11h-47.93v-7.89h61.41v3.85l-50.44 69.3z"/><path d="m1740.33 479.42a18 18 0 0 1 -9 2.31c-6 0-10.59-2.89-11.55-11.36a45.07 45.07 0 0 1 -30.42 11.36c-17.71 0-27.34-9.05-27.34-22.52 0-16.95 15.4-23.88 34.27-23.88a71.85 71.85 0 0 1 23.29 3.85v-12.7c0-13.67-5.77-21.75-22.33-21.75a48.19 48.19 0 0 0 -27 8.27l-1.15-7.5a52.26 52.26 0 0 1 29.45-8.67c16.17 0 30 6.16 30 28.49v39.27c0 9.24 3.85 11.94 11 9.05zm-20.79-16.94v-16.17a62.19 62.19 0 0 0 -22.13-3.85c-15.41 0-26 5.19-26 16.17s9.43 15.4 19.83 15.4c11.56-.03 22.34-5.39 28.3-11.55zm-18.67-77.2h-7.87l22.52-26.18h10.2z"/><path d="m1817.53 471.91v7.89h-64.11v-4l50.44-69.11h-47.93v-7.89h61.41v3.85l-50.44 69.3z"/><path d="m1830.81 461.9 7.7-3.08c2.31 6.74 7.89 15.4 24.83 15.4 13.67 0 22.14-6 22.14-15.21 0-21.37-49.86-12.51-49.86-40 0-14.05 13.09-22.14 28.88-22.14 15 0 27.53 6.74 28.88 22.14l-7.32 1.93c-1.54-13.09-12.71-16.75-21.75-16.75-11.75 0-20 5.58-20 14.05 0 19.64 50 11.94 50 40 0 16.37-15.21 23.49-31.77 23.49-19.02 0-28.65-9.24-31.73-19.83z"/><path d="m105.85 280.85c-25.29 0-49.42-11.76-61.18-22.94-2.35 2.35-5.29 7.65-5.29 12.36 0 7.05-.59 10.58-7.65 10.58-7.65 0-8.24-4.12-8.24-10v-67.06c0-5.88 1.18-10.59 7.65-10.59 7.65 0 8.24 5.88 8.24 10.59 0 36.47 38.23 58.83 63.53 58.83 27.64 0 53.53-9.42 53.53-41.77 0-20.59-15.29-32.95-47.06-42.36l-17.65-5.88c-30.59-9.41-67.06-29.41-67.06-71.77 0-47.06 40-70 80.59-70 21.77 0 41.18 10.59 50 18.23 2.36-1.17 4.12-4.11 4.12-7.64 0-5.3 1.18-10.59 8.24-10.59 7.65 0 8.23 4.71 8.23 10v58.24c0 4.71-1.76 10-7.65 10-7.64 0-8.82-5.29-8.82-10 0-19.42-14.7-50-54.12-50-25.29 0-50 11.77-50 39.42 0 19.41 16.47 32.94 36.47 38.24l21.77 5.88c45.88 12.35 74.71 36.47 74.71 77.06 0 48.23-40 71.17-82.36 71.17z"/><path d="m429.4 115c-6.48 0-9.42-4.71-9.42-8.82 0-42.36-9.41-52.95-43.53-52.95h-25.3v204.68c28.24 0 31.77-.59 37.65-.59 4.71 0 8.83 4.12 8.83 10.59s-4.12 10-8.83 10c-5.88 0-9.41-2.94-57.06-2.94h-2.35c-48.24 0-51.77 2.94-57.65 2.94-4.12 0-8.82-3.53-8.82-10s4.7-10.59 8.82-10.59c5.88 0 9.41.59 37.65.59v-204.72h-25.3c-34.12 0-42.94 10.59-42.94 53 0 4.11-2.94 8.82-9.41 8.82s-8.83-4.71-8.83-8.82c0-5.88 2.36-22.36 2.36-46.47v-15.94c0-6.47 4.11-10.59 8.82-10.59 5.29 0 23.53 2.94 32.94 2.94h127.07c8.82 0 27.06-2.94 32.35-2.94 4.71 0 8.83 4.12 8.83 10.59v15.89c0 24.11 2.94 40.59 2.94 46.47a8.64 8.64 0 0 1 -8.82 8.86z"/><path d="m613.83 259.67c35.88 0 58.24-20.58 58.24-54.11v-151.78c-24.71 0-27.06.59-32.94.59-4.12 0-8.83-3.53-8.83-10s4.71-10.59 8.83-10.59c5.88 0 8.82 2.94 42.94 2.94h.59c34.71 0 37.06-2.94 42.94-2.94 4.12 0 8.82 4.12 8.82 10.59s-4.7 10-8.82 10c-5.88 0-8.82-.59-32.94-.59v151.78c0 51.17-40.59 75.29-89.42 75.29-47.65 0-88.83-24.12-88.83-75.29v-151.78c-28.82 0-31.76.59-37.65.59-4.7 0-8.82-3.53-8.82-10s4.12-10.59 8.82-10.59c5.89 0 8.83 2.94 57.07 2.94h2.35c48.24 0 51.76-2.94 57.65-2.94 4.12 0 8.82 4.12 8.82 10.59s-4.7 10-8.82 10c-5.89 0-9.41-.59-37.65-.59v158.83c0 33.53 27.06 47.06 57.65 47.06z"/><path d="m1007 156.14c0 69.41-50.59 121.18-105.88 121.18-16.48 0-63-2.94-72.36-2.35-47.65 0-51.18 2.94-57.06 2.94-4.71 0-8.82-3.53-8.82-10s4.11-10.59 8.82-10.59c5.88 0 9.41.59 37.64.59v-204.13c-28.23 0-31.76.59-37.64.59-4.71 0-8.82-3.53-8.82-10s4.11-10.59 8.82-10.59c5.88 0 9.41 2.94 57.06 2.94 17.65-.59 55.88-1.76 72.36-1.76 55.26.04 105.88 51.17 105.88 121.18zm-44.11 0c-.03-78.24-22.39-102.95-65.89-102.95-24.71 0-45.89.59-45.89.59v204.13s18.83 1.18 45.89 1.18c43.5 0 65.86-25.3 65.86-102.95z"/><path d="m1162.37 257.32c4.7 0 8.82 4.12 8.82 10.59s-4.12 10-8.82 10c-5.88 0-9.41-2.94-57.06-2.94h-3c-47.64 0-51.17 2.94-57.06 2.94-4.7 0-8.82-3.53-8.82-10s4.12-10.59 8.82-10.59c5.89 0 9.42.59 37.65.59v-204.13c-28.23 0-31.76.59-37.65.59-4.7 0-8.82-3.53-8.82-10s4.12-10.59 8.82-10.59c5.89 0 9.42 2.94 57.06 2.94h3c47.65 0 51.18-2.94 57.06-2.94 4.7 0 8.82 4.12 8.82 10.59s-4.12 10-8.82 10c-5.88 0-9.41-.59-37.65-.59v204.13c28.28 0 31.77-.59 37.65-.59z"/><path d="m1313.75 280.85c-61.18 0-112.94-50-112.94-124.71s51.76-125.3 112.94-125.3c61.77 0 113 50.59 113 125.3s-51.23 124.71-113 124.71zm0-230.6c-42.94 0-65.88 25.88-65.88 105.89s22.94 105.86 65.88 105.86 65.89-25.88 65.89-105.89-22.95-105.86-65.89-105.86z"/><path d="m1705.16 257.32c4.12 0 8.83 4.12 8.83 10.59s-4.71 10-8.83 10c-5.88 0-9.41-2.94-57.65-2.94h-2.35c-47.65 0-51.18 2.94-57.06 2.94-4.71 0-8.83-3.53-8.83-10s4.12-10.59 8.83-10.59c5.88 0 9.41.59 37.65.59v-204.13c-28.24 0-39.41 1.77-45.3 1.77-4.12 0-8.83-4.12-8.83-10.59 0-5.89 4.71-10 8.83-10 5.89 0 17.06 1.17 45.3 1.17 9.41 0 27.65-2.94 32.94-2.94 4.12 0 8.82 4.12 8.82 10.59v214.13c28.24 0 31.77-.59 37.65-.59z"/><path d="m1757.37 73.78s-7.06 20.59-7.06 41.18c0 4.12-3.53 8.82-10 8.82s-9.41-4.7-9.41-8.82c0-7.65 8.23-33.53 8.23-61.18v-11.18c0-6.47 4.12-10 8.82-10 6.47 0 18.24 2.35 33 2.35l110 1.17 2.35-4.11c8.24-12.36 23-1.18 15.89 9.41l-74.71 109.41c-32.94 48.24-44.71 63.54-44.71 82.36 0 15.88 8.83 24.71 18.83 27.65-5.88-17.65 9.41-30.59 22.35-30.59a24.23 24.23 0 0 1 24.05 24.13c0 17.06-17.06 27.65-33 27.65-21.17 0-50.58-12.35-50.58-48.83 0-25.88 14.11-43.53 45.88-90l47.7-69.42z"/></g></svg>