<svg height="768" viewBox="-2.14875 -2.14875 75.9225 94.891319" width="614" xmlns="http://www.w3.org/2000/svg"><path d="m0 .00005v90.59375h71.625v-90.59375z" fill="#fff"/><path d="m0 74.5v16.09375h71.625v-16.09375z"/><path d="m0 0v72.6875h30.4375c1.745 0 2.21875-.49 2.21875-3.15625v-28.125c0-2.1325-.1775-2.6075-.90625-2.84375-1.16625-.35625-1.8125-.26125-1.8125-1.03125 0-.35625.295-.65625.78125-.65625.68 0 2.14625.25 3.75.25 1.26375 0 2.435-.25 3.40625-.25.58375 0 .78125.245.78125.71875 0 .83-.4075.55375-1.71875.96875-.73.23625-1.0625.80875-1.0625 1.875v11.15625c0 1.71875.0587 1.875.15625 1.875.0975 0 .42-.51.90625-1.28125.9225-1.4225 4.3725-6.46 6.21875-9.71875.72875-1.30375 1.21875-2.335 1.21875-2.75 0-.77-.4025-1.10625-1.375-1.34375-.82625-.1775-1.1875-.31125-1.1875-.84375 0-.35625.27375-.65625.90625-.65625.82625 0 2.3025.25 3.46875.25 1.36125 0 2.605-.25 3.1875-.25.7775 0 1.03125.24125 1.03125.65625 0 .71125-.43375.54375-1.40625.78125-.875.2375-2.1125 1.4075-3.8125 3.71875-1.6525 2.2525-3.2475 4.57375-4.65625 7.0625-.68125 1.185-.71875 1.42-.71875 1.65625 0 .2375.09.475.625 1.71875.7775 1.7775 2.3725 5.5725 5.96875 14.34375.55375 1.35125.99375 2.37 1.34375 3.15625 1.095 2.4525 2.13875 2.71875 3.09375 2.71875h20.78125v-72.6875zm56.21875 41.65625c2.58125 0 4.21625.56625 5.40625 1.5 1.46 1.14625 2 2.93375 2 4.84375 0 3.1425-1.85 4.995-4.125 5.84375v.125c.50875.1275 1.055.2875 1.53125.5 2.07125.97625 3.65625 3.1075 3.65625 6.84375 0 2.2925-.5675 4.30625-1.6875 5.75-1.05375 1.27375-2.55625 2.03125-4.59375 2.03125-1.3925 0-2.76625-.1875-4.125-.1875-1.25625 0-2.67.1875-3.28125.1875-.51 0-.78125-.19-.78125-.65625 0-.4675.5925-.54875 1-.71875.645-.2125.8125-.58625.8125-1.5625v-20.625c0-1.31625-.3875-1.80125-1.40625-1.84375-.2725 0-.4925.002-.59375-.125-.1025-.0425-.125-.11125-.125-.28125 0-.425.59375-.69375 1.375-.90625 1.59625-.51 3.27375-.71875 4.9375-.71875zm-48.1875.5c.72875 0 1.615.15625 2.34375.15625.53 0 1.34875-.15625 1.8125-.15625.3975 0 .49.0512.65625.6875 1.15875 5.18 2.27875 10.41375 3.4375 15.59375.265 1.27375.3925 2.125.65625 2.125.2325 0 .32875-.39375.59375-1.625 1.16-5.17875 2.3075-10.3625 3.5-15.5.165-.93375.35625-1.28125.6875-1.28125.46375 0 1.31.15625 1.90625.15625.6625 0 1.6525-.15625 2.28125-.15625.29875 0 .59375.17.59375.59375 0 .4675-.415.65375-1.375.78125-.43125.0425-.65625.63375-.65625 2.375 0 3.86375.46375 14.7175.5625 19.8125.0337 1.27375.3175 1.8725.78125 2 .92625.2975 1.28125.345 1.28125.8125 0 .46625-.2875.5625-.75.5625-.56375 0-1.31875-.1875-2.875-.1875-1.29125 0-2.34375.1875-2.90625.1875-.4975 0-.78125-.18125-.78125-.5625v-.0312c0-.4675.3575-.61125 1.21875-.78125.9275-.1275 1-.5775 1-2.53125 0-4.4575-.305-13.1775-.4375-17.59375-.0337-.63625-.0562-.84375-.15625-.84375-.1325 0-.18125.2225-.28125.5625-.33125 1.14625-1.07125 4.74875-3.6875 16-1.0925 4.67-.9625 5.59375-1.625 5.59375-.33125 0-.47875-.33625-.84375-2.375-.92625-5.01-3.5925-16.69125-4.15625-19.28125-.0663-.34-.1475-.5-.3125-.5-.16625 0-.15375.3425-.21875.9375-.2325 3.60875-.34375 10.41125-.34375 14.0625 0 2.845-.15 5.71375.84375 5.96875.59625.17 1.53125.18625 1.53125.78125 0 .33875-.16125.59375-.625.59375-.59625 0-.9875-.1875-2.3125-.1875-1.1925 0-1.72875.1875-2.125.1875-.29875 0-.53125-.0425-.53125-.59375 0-.595.53125-.54875 1.09375-.71875.795-.2975.9325-1.275 1.03125-3.3125.16625-4.20375.5-14.44375.5-17.96875 0-2.335-.006-2.7875-1-3-.59625-.1275-1.15625-.22-1.15625-.6875 0-.59375.47875-.65625.84375-.65625zm49.03125.6875c-1.52875 0-1.90625.48125-1.90625 1.5v8.6875c0 .4675.1675.5625.8125.5625.91625 0 1.75-.1775 2.53125-.6875 1.25625-.80625 1.78125-2.4575 1.78125-4.75 0-3.22625-1.08-5.3125-3.21875-5.3125zm-19.53125 11.34375c-.38875 0-1.65625 1.73875-1.65625 2.6875v12.65625c0 2.785.785 3.15625 1.90625 3.15625h5.53125c1.155 0 1.6025-1.2325 1-2.8125-.2025-.53125-.51875-1.2675-.96875-2.34375-1.6025-3.79375-3.14625-7.585-4.75-11.4375-.43875-1.06625-.81875-1.90625-1.0625-1.90625zm19.46875.59375c-1.66375 0-1.81.0975-1.84375.4375v9.90625c0 1.74125.49375 2.78125 2.125 2.78125 1.46 0 2.57375-.7725 3.21875-2.34375.50875-1.10375.75-2.60125.75-4.46875 0-1.61375-.3025-2.97-.8125-4.03125-.7125-1.44375-1.90875-2.28125-3.4375-2.28125z" fill="#b60439"/><path d="m57.4125 78.51255h1.4575v3.70125h.035c.19125-.31.395-.5975.585-.87125l2.11375-2.83h1.80375l-2.77125 3.42625 2.95 4.62125h-1.72l-2.26875-3.69-.7275.86v2.83h-1.4575zm-16.8525 8.0475v-8.0475h1.68375l2.07875 3.45c.525.89625 1.0025 1.8275 1.3725 2.69875l.0238-.0113c-.1075-1.0625-.13125-2.1025-.13125-3.33125v-2.80625h1.36125v8.0475h-1.52875l-2.10125-3.54625c-.51375-.88375-1.03875-1.8625-1.4325-2.77l-.0475.0113c.0587 1.03875.0825 2.1025.0825 3.4275v2.8775h-1.36125m-14.58125-2.28125-.6925 2.28125h-1.51625l2.57875-8.0475h1.875l2.615 8.0475h-1.57625l-.72875-2.28125zm2.30375-1.11-.6325-1.9825c-.155-.48875-.28625-1.03875-.40625-1.50375h-.0237c-.11875.465-.23875 1.02625-.38125 1.50375l-.62125 1.9825h2.065m-19.32-4.5375c.46625-.095 1.31375-.17875 2.15-.17875 1.07375 0 1.755.1425 2.2925.51375.50125.2975.83625.82375.83625 1.51625 0 .74-.46625 1.40875-1.3375 1.73125v.0362c.8475.215 1.62375.8825 1.62375 1.98125 0 .71625-.31125 1.2775-.76375 1.66-.57375.50125-1.5175.7525-2.9975.7525-.8125 0-1.42125-.06-1.80375-.1075v-7.905zm1.4575 3.17625h.7525c1.02625 0 1.5875-.4775 1.5875-1.15875 0-.76375-.57375-1.11-1.505-1.11-.43 0-.68.0238-.835.06zm0 3.69c.19125.0362.44125.0362.77625.0362.9425 0 1.79-.34625 1.79-1.35 0-.93125-.82375-1.31375-1.83875-1.31375h-.7275v2.6275" fill="#fff" fill-rule="evenodd"/></svg>